
		<svg xmlns="http://www.w3.org/2000/svg" xmlns:xlink="http://www.w3.org/1999/xlink" version="1.1" width="3300" height="870">
			
			<g transform="scale(15) translate(10, 10)">
				<defs id="SvgjsDefs1776"></defs><g id="SvgjsG1777" featureKey="root" fill="#484848"></g><g id="SvgjsG1778" featureKey="text1" fill="#d8d8d8" transform="matrix(1.1404630261006015,0,0,1.1404630261006015,-0.14597915531495642,5.118816377565315)"><path d="M15.32 14.280000000000001 q-0.28 0.02 -0.47 0.21 t-0.47 0.23 q-0.1 0.02 -0.12 0.11 t-0.04 0.19 q-0.04 0.24 -0.22 0.37 t-0.34 0.29 q-0.22 0.04 -0.44 0.03 t-0.38 0.19 q0.16 0.1 0.3 0.17 t0.3 0.17 q-0.1 0.06 -0.17 0.11 t-0.15 0.05 q-0.44 0 -0.84 0.28 q-0.14 0.1 -0.26 0.08 t-0.2 -0.12 q-0.04 -0.06 -0.05 -0.15 t-0.03 -0.17 q0.1 -0.22 0.26 -0.46 q-0.16 -0.16 -0.31 -0.33 t-0.33 -0.37 q-0.02 -0.24 -0.03 -0.5 t-0.03 -0.48 q-0.18 -0.34 -0.34 -0.67 t-0.34 -0.67 l0 -0.84 q-0.1 -0.14 -0.17 -0.25 t-0.17 -0.25 q-0.04 -0.42 -0.06 -0.92 q-0.04 -0.08 -0.11 -0.19 t-0.13 -0.23 q-0.06 -0.1 -0.11 -0.23 t-0.11 -0.23 q-0.16 -0.08 -0.2 0.16 q-0.04 0.22 -0.04 0.45 t-0.02 0.45 q-0.06 0.12 -0.13 0.23 t-0.17 0.27 q-0.02 0.2 -0.03 0.41 t-0.03 0.47 q-0.08 0.14 -0.16 0.29 t-0.18 0.33 l0 0.86 q-0.08 0.14 -0.15 0.26 t-0.17 0.28 q-0.02 0.34 -0.06 0.88 q-0.14 0.26 -0.34 0.62 l0 0.82 q-0.08 0.16 -0.15 0.28 t-0.17 0.28 q-0.02 0.32 -0.04 0.66 t-0.04 0.66 q-0.1 0.16 -0.17 0.27 t-0.15 0.23 q0 0.14 -0.01 0.28 t-0.01 0.3 q-0.08 0.1 -0.14 0.2 t-0.16 0.2 q-0.06 0.06 -0.14 0.11 t-0.16 0.09 l-2.32 0 q-0.08 -0.08 -0.16 -0.13 t-0.12 -0.13 q-0.04 -0.16 -0.07 -0.34 t-0.07 -0.36 q-0.04 -0.08 -0.09 -0.16 t-0.13 -0.18 q-0.02 -0.24 -0.04 -0.49 t-0.04 -0.51 q-0.08 -0.14 -0.15 -0.25 t-0.15 -0.23 q0 -0.14 -0.01 -0.27 t0.01 -0.27 q0 -0.14 0.09 -0.17 t0.25 0.09 q0.26 0.16 0.5 0.14 q0.04 -0.02 0.08 -0.05 t0.08 -0.07 q-0.06 -0.12 -0.12 -0.23 t-0.14 -0.25 q-0.08 -0.34 -0.03 -0.69 t-0.09 -0.69 q-0.02 -0.04 -0.1 -0.12 q-0.16 0.26 -0.29 0.55 t-0.45 0.45 q-0.1 -0.12 -0.22 -0.25 t-0.26 -0.25 q-0.02 -0.28 -0.03 -0.55 t-0.05 -0.51 q-0.08 -0.14 -0.15 -0.25 t-0.15 -0.23 q-0.02 -0.22 -0.03 -0.45 t-0.01 -0.47 q-0.08 -0.1 -0.14 -0.22 t-0.16 -0.28 q-0.02 -0.22 -0.04 -0.48 t-0.06 -0.52 q-0.08 -0.12 -0.14 -0.24 t-0.14 -0.24 q-0.02 -0.22 -0.03 -0.44 t-0.03 -0.44 q-0.32 -0.52 -0.38 -1.18 q-0.08 -0.1 -0.14 -0.22 t-0.16 -0.24 l0 -0.34 q0 -0.44 0.4 -0.5 q0.3 -0.04 0.32 -0.36 l-0.02 0.02 q0.14 -0.02 0.27 -0.03 t0.27 -0.01 q0.34 -0.16 0.45 -0.44 t0.27 -0.56 q0.08 0.04 0.15 0.09 t0.13 0.11 q0.08 0.06 0.15 0.08 t0.17 0.04 q0.08 0.02 0.15 0.08 t0.17 0.14 q-0.16 0.04 -0.29 0.07 t-0.23 0.11 q-0.1 0.06 -0.18 0.28 q-0.06 0.26 0.26 0.36 q0.06 0.02 0.18 0.02 q0.1 -0.08 0.22 -0.14 t0.26 -0.16 q0.04 0.12 0.07 0.24 t0.07 0.24 q0.02 0.1 0.02 0.18 t0.02 0.16 q0.08 0.12 0.15 0.24 t0.17 0.26 l0 0.84 q0.1 0.16 0.17 0.32 t0.15 0.32 q0.06 0.2 -0.07 0.32 t-0.17 0.26 q0.16 0.28 0.31 0.57 t0.31 0.63 q0.04 0.34 0.06 0.86 l0.3 0.6 q0.1 0.24 0.04 0.63 t0.1 0.77 q0.22 -0.02 0.32 -0.15 t0.24 -0.31 q0.02 -0.22 0.03 -0.48 t0.05 -0.52 q0.08 -0.12 0.14 -0.23 t0.16 -0.27 q0.02 -0.2 0.03 -0.42 t0.03 -0.46 q0.08 -0.14 0.16 -0.3 l0.18 -0.36 l0 -0.8 q0.1 -0.16 0.17 -0.27 t0.17 -0.27 q0.02 -0.2 0.02 -0.42 t0.02 -0.46 q0.08 -0.14 0.16 -0.29 t0.16 -0.31 q0.02 -0.22 0.03 -0.45 t0.01 -0.45 q0.08 -0.12 0.15 -0.24 t0.15 -0.22 l0.04 -0.36 t0.04 -0.34 q0.08 -0.12 0.15 -0.23 t0.15 -0.23 q0.02 -0.22 0.03 -0.45 t0.03 -0.49 q0.04 -0.06 0.09 -0.12 t0.09 -0.1 l2.36 0 q0.3 0.18 0.3 0.46 q0 0.44 0.01 0.89 t0.03 0.93 q0.16 0.18 0.32 0.38 t0.34 0.4 q0.02 0.34 0.03 0.66 t0.03 0.66 q0.06 0.14 0.14 0.28 t0.16 0.3 q0.02 0.14 0.03 0.27 t0.01 0.27 q0.08 0.12 0.15 0.24 t0.17 0.28 q0.02 0.36 0.06 0.9 q0.06 0.12 0.14 0.27 t0.18 0.31 q0.02 0.3 0.02 0.61 t0.02 0.65 q0.12 0.22 0.19 0.35 t0.08 0.24 t-0.04 0.25 t-0.15 0.38 q0.04 0.04 0.08 0.07 t0.08 0.03 q0.08 0 0.16 -0.02 l0.16 -0.04 q0.12 -0.22 0.24 -0.47 t0.28 -0.53 l0 -1.16 q0.1 -0.14 0.17 -0.26 t0.17 -0.28 l0 -1.18 q0.1 -0.18 0.17 -0.34 t0.17 -0.32 l0.06 -0.9 q0.06 -0.1 0.12 -0.22 t0.16 -0.28 q0.02 -0.38 0.03 -0.77 t0.03 -0.83 q0.08 -0.14 0.15 -0.29 t0.17 -0.31 q0.02 -0.32 0.03 -0.64 t0.03 -0.68 q0.1 -0.1 0.19 -0.23 t0.19 -0.25 q0.4 -0.12 0.76 -0.09 t0.72 0.03 q0.22 0.12 0.46 0.26 q0.08 -0.04 0.15 -0.09 t0.15 -0.11 q0.16 0.08 0.3 0.14 t0.3 0.14 l-0.02 -0.02 l0 1.56 q0 0.4 -0.16 0.6 t-0.2 0.44 q-0.04 0.16 -0.14 0.31 t-0.2 0.33 l0 1.2 q-0.1 0.14 -0.17 0.25 t-0.17 0.27 q-0.02 0.2 -0.03 0.42 t-0.01 0.48 q-0.16 0.24 -0.34 0.62 l0 0.82 q-0.1 0.14 -0.17 0.26 t-0.15 0.24 q-0.04 0.16 -0.05 0.34 t-0.05 0.36 q-0.08 0.1 -0.15 0.21 t-0.15 0.23 q-0.02 0.22 -0.03 0.45 t-0.01 0.45 q-0.06 0.16 -0.17 0.22 t-0.24 0.11 l-0.26 0.1 t-0.21 0.17 q-0.08 -0.16 -0.14 -0.31 t-0.14 -0.29 q-0.08 -0.12 -0.17 -0.21 t-0.11 -0.25 q0.3 0 0.36 -0.28 q0.06 -0.24 0 -0.5 q-0.02 -0.1 -0.08 -0.14 t-0.12 -0.02 l-0.07 0.07 t-0.05 0.07 l0 0.84 z M11.3 10.76 l0 -1.7 q0 -0.04 -0.04 -0.06 t-0.08 -0.06 l-0.09 0.09 t-0.13 0.11 q0.06 0.18 0.05 0.36 t-0.01 0.38 t0.06 0.42 t0.24 0.46 z M3.52 13.5 q0.26 -0.16 0.2 -0.44 q-0.04 -0.1 -0.1 -0.13 t-0.1 0.01 q-0.1 0.06 -0.1 0.12 q0.02 0.1 0.04 0.21 t0.06 0.23 z M3.66 12.219999999999999 l-0.1 -0.04 q-0.12 0 -0.12 0.1 q0 0.02 0.03 0.06 t0.07 0.04 q0.16 0 0.12 -0.16 z M12.4 17.9 q0.2 -0.02 0.32 -0.15 t0.32 -0.21 q0.16 -0.04 0.3 0.05 t0.3 0.23 q0.1 -0.06 0.21 -0.12 t0.23 -0.12 q0.12 0.14 0.13 0.31 t0.01 0.35 t0.02 0.37 t0.14 0.35 l0.28 -0.28 l0.22 -0.22 q0.04 -0.34 0.13 -0.63 t0.21 -0.57 q-0.1 -0.14 -0.2 -0.29 t0 -0.39 q0.08 -0.04 0.2 -0.09 t0.3 -0.15 q0.04 -0.1 0.11 -0.24 t0.17 -0.28 q0.06 -0.1 0.24 -0.1 t0.22 0.08 q0.08 0.12 -0.06 0.3 q-0.06 0.06 -0.12 0.18 q-0.04 0.24 -0.05 0.5 t-0.03 0.5 q-0.1 0.14 -0.17 0.25 t-0.13 0.23 q-0.02 0.22 -0.03 0.44 t-0.01 0.44 q-0.14 0.24 -0.26 0.48 t-0.24 0.46 q-0.26 0.1 -0.52 0.11 t-0.54 0.01 q-0.22 0.16 -0.48 0.3 l-0.7 0 q-0.12 -0.12 -0.24 -0.25 t-0.22 -0.25 q0 -0.12 0.01 -0.2 t0.01 -0.18 q0.14 -0.16 0.32 -0.15 t0.34 -0.03 q-0.04 0.22 0.14 0.28 q0.06 0.04 0.12 -0.02 q0.14 -0.14 -0.28 -0.22 q0.08 -0.16 0.15 -0.31 t0.13 -0.31 q-0.16 -0.16 -0.34 -0.12 t-0.34 0 q-0.32 -0.06 -0.28 -0.38 z M2.34 4.640000000000001 q-0.18 0.16 -0.31 0.29 t-0.27 0.25 q-0.14 0 -0.25 0.06 t-0.22 0.14 t-0.22 0.15 t-0.25 0.07 q-0.12 0 -0.25 -0.02 t-0.23 -0.04 q-0.1 -0.2 -0.15 -0.31 t-0.06 -0.2 t0.03 -0.19 t0.14 -0.26 q0.08 0.04 0.16 0.09 t0.18 0.13 q0.1 -0.06 0.2 -0.11 t0.2 -0.11 q0.08 0.04 0.15 0.09 t0.17 0.13 l0.2 -0.12 t0.2 -0.1 q0.12 -0.02 0.26 0 t0.32 0.06 z M1.58 7.039999999999999 l-0.32 0 q-0.22 0 -0.26 -0.05 t-0.14 -0.33 l-0.02 0.02 q0.16 -0.06 0.3 -0.13 l0.3 -0.15 q0.16 0.14 0.15 0.31 t-0.03 0.33 l0.02 0 z M12.44 17.86 q-0.24 -0.1 -0.32 -0.18 t-0.04 -0.26 q0.04 -0.24 0.2 -0.16 q0.12 0.04 0.12 0.12 l0 0.52 z M3.32 4.699999999999999 q-0.04 0.04 -0.06 0.08 t-0.06 0.04 q-0.04 -0.02 -0.08 -0.06 t-0.04 -0.06 q0.14 -0.26 0.24 0 z M18.92 4.880000000000001 q-0.04 -0.22 0.12 -0.28 q0.1 -0.04 0.14 0.01 t0 0.13 q-0.06 0.16 -0.28 0.12 z M0.86 6.66 q-0.2 0.04 -0.26 -0.12 q-0.04 -0.06 0.02 -0.12 q0.12 -0.14 0.22 0.26 z M20.98 18.78 q-0.08 -0.12 -0.15 -0.23 t-0.15 -0.21 l0 -7.76 q0.1 -0.16 0.18 -0.32 t0.18 -0.32 q0 -0.12 -0.01 -0.25 t-0.01 -0.25 q-0.08 -0.12 -0.15 -0.24 t-0.17 -0.26 q-0.02 -0.96 -0.03 -1.95 t0.05 -2.01 q0.28 -0.12 0.55 -0.24 t0.55 -0.22 q0.16 0.1 0.27 0.16 t0.23 0.14 l0.42 -0.3 l2.72 0 q0.12 0.08 0.24 0.15 t0.26 0.15 q0.42 0.04 0.92 0.06 q0.12 0.08 0.27 0.16 t0.31 0.18 l0.56 0 q0.2 0.16 0.39 0.34 t0.41 0.34 q0.08 0.04 0.16 0.05 t0.18 0.05 q0.14 0.22 0.28 0.45 t0.26 0.47 q0.1 0.2 0.18 0.41 t0.18 0.43 l0 2.94 q-0.22 0.46 -0.43 0.86 t-0.43 0.82 q-0.12 0.02 -0.24 0.05 t-0.26 0.03 q-0.22 0 -0.34 0.14 q0.04 0.1 0.09 0.21 t0.11 0.21 q-0.22 0.22 -0.4 0.12 t-0.38 -0.22 q-0.06 -0.04 -0.13 0.01 t-0.09 0.17 t-0.01 0.26 t0.01 0.26 q0.06 0.08 0.12 0.14 t0.14 0.1 q0.32 0.1 0.51 0.32 t0.33 0.54 q0.1 0.24 0.22 0.47 t0.24 0.47 l0.2 0.4 t0.22 0.38 q0.14 0.22 0.22 0.48 t0.28 0.46 q0 0.24 0.16 0.41 t0.2 0.39 q0.06 0.28 0.24 0.48 t0.22 0.48 q0.02 0.12 0.12 0.23 t0.14 0.23 q0.08 0.26 -0.24 0.42 l-2.98 0 q-0.26 -0.06 -0.3 -0.24 t-0.14 -0.32 q-0.22 -0.24 -0.3 -0.55 t-0.3 -0.53 q-0.02 -0.2 -0.11 -0.35 t-0.19 -0.31 q-0.08 -0.1 -0.09 -0.23 t-0.03 -0.26 t-0.05 -0.26 t-0.15 -0.23 q-0.16 -0.16 -0.22 -0.38 t-0.16 -0.42 q-0.12 -0.22 -0.27 -0.45 t-0.19 -0.49 q-0.06 -0.26 -0.22 -0.39 t-0.3 -0.27 q-0.52 -0.16 -1.1 -0.04 q-0.04 0.08 -0.11 0.15 t-0.07 0.15 q-0.02 1.08 -0.02 2.16 l0 2.16 l0 0.86 q-0.1 0.08 -0.17 0.15 t-0.15 0.07 q-0.58 0.02 -1.17 0.02 l-1.17 0 q-0.1 -0.1 -0.22 -0.26 l0 -0.56 q0.06 -0.1 0.13 -0.21 t0.15 -0.21 z M27.52 16.04 q0.26 0 0.4 -0.15 t0.24 -0.33 q0.02 -0.02 -0.02 -0.12 q-0.04 -0.02 -0.07 -0.04 t-0.07 -0.02 q-0.42 -0.02 -0.44 0.36 q-0.02 0.1 -0.01 0.18 t0.01 0.16 q-0.4 0.1 -0.28 0.22 q0.06 0.08 0.12 0.02 q0.16 -0.06 0.12 -0.28 z M23.58 12.46 l-0.02 -0.02 q0.02 0.3 0.32 0.36 q0.14 0.02 0.27 0.01 t0.27 -0.01 q0.3 -0.28 0.59 -0.54 t0.57 -0.5 q0.14 -0.02 0.23 -0.02 l0.19 0 q0.06 -0.02 0.18 -0.02 q0.18 -0.12 0.28 -0.21 t0.19 -0.22 t0.2 -0.34 t0.33 -0.61 l0 -1.58 q-0.16 -0.28 -0.28 -0.5 t-0.22 -0.38 q-0.26 -0.14 -0.46 -0.25 t-0.4 -0.23 l-1.94 0 q-0.42 0.26 -0.18 0.62 q0.04 0.08 0.09 0.16 t0.11 0.2 l0 1.92 q0 0.04 -0.04 0.16 q-0.04 0.08 -0.09 0.15 t-0.09 0.17 q0.04 0.1 0.09 0.21 t0.09 0.23 q-0.1 0.14 -0.21 0.27 t-0.29 0.17 q-0.08 -0.04 -0.15 -0.1 t-0.15 -0.1 q-0.12 0.06 -0.16 0.15 t-0.04 0.15 t0.03 0.09 t0.05 -0.03 q-0.06 0.24 -0.15 0.38 t-0.16 0.25 t-0.11 0.19 t-0.02 0.2 q-0.4 0.08 -0.26 0.22 q0.06 0.06 0.12 0.02 q0.16 -0.1 0.12 -0.28 q0.16 0.08 0.3 0.14 t0.3 0.14 q0.1 -0.1 0.12 -0.14 q0.04 -0.08 0.04 -0.16 t0.04 -0.18 q0.08 -0.14 0.3 -0.14 z M25.8 13.780000000000001 q0.5 0.18 0.62 -0.1 q0.1 -0.18 0.16 -0.38 t0.16 -0.42 l-0.52 0 q-0.04 0.14 -0.08 0.26 t-0.1 0.22 q-0.04 0.1 -0.11 0.21 t-0.13 0.21 z M21.56 15.3 q0.1 -0.08 0.19 -0.15 t0.19 -0.17 q0.2 -0.16 0.04 -0.26 q-0.08 -0.08 -0.14 -0.08 q-0.18 0 -0.35 -0.03 t-0.33 0.13 q0 0.2 0.12 0.31 t0.28 0.25 z M26.240000000000002 15.440000000000001 l-0.06 0.1 q0.04 0.1 0.1 0.1 q0.1 0 0.1 -0.08 q0.02 -0.08 -0.03 -0.11 t-0.11 -0.01 z M21.16 13.64 l-0.04 0.1 q0.04 0.1 0.1 0.1 q0.1 0 0.1 -0.1 q0.02 -0.14 -0.16 -0.1 z M23.04 10.34 q-0.28 0.1 0 0.24 q0 0.02 0.04 -0.02 l0.08 -0.08 q-0.04 -0.04 -0.06 -0.07 t-0.06 -0.07 z M21.66 10.4 q-0.02 -0.02 -0.05 -0.04 t-0.05 0 q-0.04 0.02 -0.12 0.1 q0.04 0.04 0.06 0.07 t0.06 0.03 q0.16 0 0.1 -0.16 z M29.66 9.02 q-0.04 -0.04 -0.07 -0.08 t-0.05 -0.02 q-0.14 0.04 -0.14 0.1 t0.14 0.12 q0.02 0 0.05 -0.04 t0.07 -0.08 z M26.98 6.6 q0.06 -0.02 0.14 -0.1 q-0.1 -0.1 -0.12 -0.1 t-0.12 0.1 q0.06 0.04 0.1 0.1 z M23.58 12.46 q0.1 -0.26 0.18 -0.32 t0.26 -0.02 q0.22 0.04 0.18 0.2 q-0.04 0.08 -0.12 0.12 l-0.52 0 z M40.599999999999994 6.66 q0.28 0.02 0.41 0.2 t0.29 0.34 q0.1 0.68 0.06 1.35 t0 1.37 q-0.06 0.1 -0.13 0.21 t-0.13 0.23 q-0.04 0.12 -0.09 0.25 t-0.13 0.33 q-0.16 0.16 -0.33 0.32 t-0.31 0.32 q-0.2 0.08 -0.33 0.14 t-0.25 0.1 q0 0.16 0.07 0.26 t0.17 0.19 t0.18 0.18 t0.12 0.21 q-0.32 0.14 -0.64 0.32 l0 0.54 q0 0.34 0.3 0.34 q0.16 0.02 0.23 -0.02 t0.15 -0.24 q0.04 -0.1 0.05 -0.2 t0.11 -0.1 q0.16 -0.04 0.19 0.08 t0.07 0.24 q0 0.04 0.08 0.16 q0.04 0.02 0.07 0.05 t0.07 0.05 q0.18 0.02 0.31 0.09 t0.17 0.31 q0.04 0.16 0.14 0.31 t0.18 0.31 l0 1.6 q-0.04 0.1 -0.09 0.17 t-0.09 0.15 q-0.16 0.32 -0.31 0.65 t-0.33 0.73 q-0.34 0.34 -0.71 0.7 t-0.75 0.72 q-0.2 0.04 -0.38 0.06 t-0.34 0.04 q-0.12 0.08 -0.23 0.16 t-0.27 0.18 l-2.64 0 q-0.24 -0.08 -0.39 -0.22 t-0.29 -0.34 q0.16 -0.32 0.45 -0.44 t0.57 -0.28 q-0.16 -0.1 -0.31 -0.17 t-0.31 -0.15 l0.24 -0.42 q-0.06 -0.08 -0.12 -0.15 t-0.1 -0.15 l0.3 -0.6 l-0.04 0.04 q0.24 -0.04 0.3 0.12 q0.1 0.22 0.2 0.52 q0.12 -0.06 0.23 -0.12 t0.25 -0.12 q0.24 -0.04 0.51 -0.06 t0.57 -0.04 q0.18 -0.18 0.38 -0.36 t0.36 -0.4 t0.25 -0.47 t0.23 -0.53 l0 -1.2 q-0.14 -0.24 -0.27 -0.47 t-0.27 -0.45 q-0.18 -0.04 -0.36 -0.07 t-0.36 -0.07 q-0.1 -0.08 -0.22 -0.15 t-0.22 -0.15 q-0.22 -0.04 -0.43 0 t-0.37 -0.22 q0 -0.18 0.04 -0.33 t0.3 -0.17 q0.08 0 0.15 -0.06 t0.15 -0.1 q-0.08 -0.04 -0.15 -0.1 t-0.15 -0.08 q-0.3 -0.02 -0.36 -0.32 q-0.04 -0.14 -0.02 -0.27 t0.02 -0.27 q0.08 -0.06 0.14 -0.11 t0.14 -0.11 l0.48 0 q0.24 0.08 0.27 0.26 t0.13 0.32 q0.2 0.26 0.56 -0.08 q-0.14 -0.12 -0.22 -0.28 q-0.2 -0.32 0.2 -0.58 q0.08 -0.04 0.16 -0.07 t0.16 -0.07 q0.14 -0.08 0.14 -0.3 q0.02 -0.14 0.02 -0.28 t0.08 -0.24 q0.22 -0.22 0.23 -0.49 t0.05 -0.53 q0.2 -0.18 0.44 -0.29 l0.48 -0.22 t0.45 -0.26 t0.37 -0.41 q0.02 -0.22 0.03 -0.44 t0.03 -0.44 z M37.44 12.66 q0.38 0.22 0.77 0.39 t0.77 0.39 q0.04 0.04 0.1 -0.03 t0.08 -0.17 l0 -0.08 t-0.02 -0.08 q-0.04 -0.12 -0.08 -0.14 q-0.18 -0.1 -0.39 -0.17 t-0.37 -0.23 q-0.06 -0.04 -0.15 -0.05 t-0.17 -0.05 l-0.36 0 q-0.12 0.16 -0.18 0.22 z M39.86 10.14 q-0.18 -0.28 -0.46 -0.18 q-0.16 0.04 -0.17 0.22 t0.11 0.4 q0.14 -0.12 0.27 -0.23 t0.25 -0.21 z M40.92 14.42 l-0.1 -0.12 q-0.04 0.04 -0.07 0.06 t-0.03 0.04 q0 0.2 0.14 0.12 q0.04 -0.02 0.04 -0.05 t0.02 -0.05 z M40.64 6.619999999999999 q-0.08 0.04 -0.16 0.07 t-0.12 0.09 q-0.08 0.1 -0.12 0.22 l-0.08 0.24 q-0.16 0.16 -0.34 0.14 t-0.34 0.02 q-0.26 0.06 -0.32 0.36 q0 0.08 -0.06 0.15 t-0.1 0.13 l-0.34 0 q-0.14 -0.08 -0.17 -0.21 t-0.03 -0.26 t-0.02 -0.26 t-0.14 -0.23 q-0.14 0.06 -0.22 0.1 t-0.17 0.03 t-0.21 -0.05 t-0.34 -0.12 q-0.4 0.14 -0.78 0.34 t-0.74 0.38 q-0.16 -0.1 -0.28 -0.18 t-0.24 -0.18 l-0.5 0 q0.04 -0.22 -0.12 -0.28 q-0.08 -0.04 -0.14 0.02 t0 0.1 t0.28 0.12 l0 0.56 q0.3 0.1 0.5 0.2 q0.1 0.04 0.16 0.2 t0.02 0.26 l-0.48 0.9 q-0.14 -0.08 -0.26 -0.15 t-0.28 -0.15 l-1.18 0 q-0.22 -0.14 -0.39 -0.28 t-0.23 -0.36 q0 -0.06 -0.01 -0.11 t0.01 -0.09 q0.3 -0.5 0.53 -1.02 t0.51 -1.02 q0.04 -0.04 0.03 -0.09 t0.03 -0.09 q0.14 -0.16 0.29 -0.32 t0.37 -0.26 q0.38 -0.16 0.72 -0.34 t0.72 -0.34 q0.16 -0.08 0.3 -0.18 t0.36 -0.18 l1.94 0 q0.52 0.32 1.1 0.54 t1 0.7 l0 0.92 z M33.4 17.86 q-0.26 0 -0.39 -0.17 t-0.27 -0.33 q-0.04 -0.32 -0.12 -0.6 t-0.24 -0.54 q0.22 -0.12 0.46 -0.25 t0.48 -0.25 q0.12 0 0.26 -0.02 t0.29 -0.02 t0.29 0.05 t0.26 0.21 q-0.12 0.06 -0.25 0.11 t-0.29 0.11 q-0.16 0.14 -0.14 0.35 t-0.02 0.43 q-0.08 0.1 -0.15 0.21 t-0.17 0.23 q0 0.12 -0.01 0.25 t-0.03 0.27 z M33.36 17.9 q0.3 -0.04 0.46 -0.28 t0.4 -0.36 q0.16 0.04 0.22 0.15 t0.09 0.23 t0.08 0.24 t0.17 0.18 q-0.2 0.24 -0.41 0.48 t-0.51 0.4 q-0.12 -0.12 -0.24 -0.23 t-0.22 -0.21 l0 -0.64 z M35.58 17.14 q-0.42 -0.12 -0.28 -0.22 q0.02 -0.04 0.06 -0.04 t0.06 0.02 q0.14 0.08 0.12 0.28 z M49.26 5.699999999999999 q0.32 0 0.63 0.01 t0.65 0.03 q0.04 0.1 0.09 0.22 t0.09 0.22 q-0.08 0.12 -0.15 0.24 t-0.17 0.26 q0.12 0.04 0.24 0.06 t0.26 0.04 q0.08 -0.16 0.15 -0.31 t0.15 -0.31 q0.04 -0.02 0.08 -0.05 t0.08 -0.03 q0.22 0 0.44 -0.01 t0.44 0.01 q0.26 0.02 0.3 0.36 q0.04 0.18 0.19 0.28 t0.31 0.04 q0.24 -0.12 0.48 -0.28 q0.02 0.16 0.04 0.28 t0.04 0.22 q-0.18 0.16 -0.32 0.33 t-0.4 0.19 l0.04 0.04 q-0.1 -0.42 -0.48 -0.36 q-0.14 0.02 -0.2 0.12 t-0.08 0.24 l0.02 -0.04 q-0.2 0.02 -0.33 -0.12 t-0.35 -0.22 l-1.18 0 q-0.12 -0.08 -0.24 -0.15 t-0.24 -0.13 q-0.46 0.28 -0.98 0.47 t-0.88 0.49 q-0.18 0.04 -0.34 0.04 l-0.31 0 t-0.28 0.02 t-0.25 0.12 q0.08 0.12 0.15 0.23 t0.17 0.25 l-0.18 0.42 q-0.2 0.06 -0.41 0.05 t-0.4 -0.02 t-0.38 0.02 t-0.37 0.15 q0.16 0.28 0.29 0.56 t0.29 0.56 q-0.04 0.14 -0.17 0.25 t-0.11 0.31 q0 0.14 -0.02 0.27 t-0.04 0.23 q-0.16 0.2 -0.34 0.19 t-0.34 -0.01 l0.02 0.02 q-0.04 -0.08 -0.07 -0.15 t-0.07 -0.15 q-0.06 -0.12 -0.12 -0.23 t-0.12 -0.21 l0.25 0 t0.25 -0.02 q0.06 0 0.12 -0.1 q0.08 -0.16 -0.14 -0.2 q-0.2 -0.04 -0.28 0.03 t-0.18 0.31 q-0.14 0.02 -0.27 0.01 t-0.27 0.03 q-0.1 0.04 -0.21 0.11 t-0.21 0.13 q-0.22 -0.26 -0.12 -0.44 t0.26 -0.36 q-0.06 -0.1 -0.11 -0.21 t-0.11 -0.21 q0.06 -0.08 0.11 -0.14 t0.11 -0.14 q-0.04 -0.08 -0.06 -0.15 t-0.06 -0.13 q-0.22 -0.22 -0.08 -0.5 q0.16 -0.28 0.4 -0.48 t0.28 -0.54 q0.2 -0.24 0.41 -0.47 t0.41 -0.49 q0.08 -0.1 0.13 -0.22 t0.13 -0.22 q0.04 -0.08 0.11 -0.14 t0.13 -0.1 q0.08 -0.06 0.16 -0.09 t0.16 -0.07 q0.06 -0.12 0.12 -0.23 t0.14 -0.25 q0.58 -0.3 1.17 -0.6 t1.17 -0.6 l1.3 0 q0.06 0.1 0.11 0.21 t0.13 0.25 q-0.16 0.18 -0.31 0.34 t-0.31 0.34 q-0.04 0.06 -0.06 0.14 t-0.06 0.16 q-0.36 0.04 -0.36 0.38 q-0.24 0.1 -0.32 0.18 t-0.04 0.26 q0.02 0.1 0.08 0.14 t0.12 0.02 q0.1 -0.06 0.12 -0.14 l0 -0.5 q0.22 -0.04 0.27 -0.09 t0.09 -0.27 z M44.26 8.82 q0.12 0.08 0.19 0.18 t0.11 0.2 t0.07 0.21 t0.11 0.19 q0.04 -0.06 0.11 -0.11 t0.07 -0.09 q0 -0.26 0.04 -0.52 t-0.1 -0.5 q-0.18 0.04 -0.26 0.09 t-0.34 0.35 z M51.82 18.36 q-0.16 -0.06 -0.3 -0.13 l-0.3 -0.15 q-0.28 0.22 -0.55 0.28 t-0.61 -0.16 q0.16 -0.2 0.31 -0.39 t0.33 -0.41 q-0.14 -0.12 -0.27 -0.24 t-0.25 -0.22 q-0.16 0.12 -0.3 0.22 t-0.34 0.16 q-0.2 0.04 -0.24 0.2 t0.06 0.34 q0.04 0.1 0.11 0.17 t0.13 0.17 l-0.86 0.86 l-1.4 0 q-0.22 -0.2 -0.43 -0.37 t-0.43 -0.33 q-0.34 -0.04 -0.55 -0.27 t-0.43 -0.45 q-0.2 -0.18 -0.38 -0.38 t-0.38 -0.42 q-0.22 -0.42 -0.43 -0.84 t-0.43 -0.82 q-0.02 -0.16 -0.02 -0.3 t-0.02 -0.26 q-0.1 -0.12 -0.17 -0.23 t-0.15 -0.21 q0 -0.1 0.01 -0.18 t0.03 -0.18 q0.16 -0.16 0.29 -0.33 t0.39 -0.17 l-0.04 -0.04 q0.06 0.38 0.4 0.4 l-0.02 -0.04 q0.02 0.2 -0.13 0.32 t-0.15 0.3 q0.12 0.1 0.22 0.11 t0.2 -0.03 t0.19 -0.1 t0.19 -0.12 q0.18 0 0.2 0.22 q0.04 0.24 0.19 0.39 l0.31 0.31 q0.1 0.08 0.26 0.06 t0.22 -0.12 l0.12 -0.24 t0.1 -0.22 l0.12 0 q0.16 0.32 0.33 0.62 t0.33 0.62 q0.18 0.04 0.36 0.06 t0.34 0.06 q0.22 0.18 0.42 0.35 t0.4 0.33 l2.38 0 q0.22 -0.16 0.43 -0.34 t0.43 -0.36 q0.1 0 0.23 -0.01 t0.23 -0.03 q0.54 0.16 0.7 0.58 q0.08 0.22 0.19 0.39 t0.19 0.39 q0.08 0.26 -0.2 0.44 q-0.14 0.02 -0.27 0.01 t-0.27 0.03 q-0.16 0.06 -0.26 0.22 q-0.08 0.08 -0.03 0.21 t0.19 0.23 q0.04 0.02 0.08 0.03 t0.08 0.03 l-0.02 -0.04 q0.02 0.24 -0.14 0.36 t-0.32 0.26 q-0.04 0.04 -0.16 0.1 l-0.46 0 l0.02 0.02 q0 -0.18 -0.01 -0.36 t-0.01 -0.38 q0.44 -0.08 0.26 -0.24 q-0.04 -0.04 -0.12 0 q-0.16 0.06 -0.12 0.26 z M46.82 15.66 q-0.2 -0.08 -0.33 -0.13 t-0.23 -0.05 t-0.13 0.08 t0.01 0.14 q0.02 0.04 0.05 0.08 t0.07 0.02 q0.2 -0.02 0.56 -0.14 z M51.46 17.06 q0.22 0.28 0.46 0.18 q0.24 -0.06 0.14 -0.2 q-0.06 -0.1 -0.12 -0.1 z M46.62 16.94 q-0.24 0.18 -0.18 0.44 q0.04 0.24 0.18 0.12 q0.1 -0.04 0.1 -0.1 q-0.02 -0.12 -0.04 -0.23 t-0.06 -0.23 z M51.8 19.06 q0 0.1 -0.03 0.19 t-0.13 0.11 q-0.26 0.04 -0.52 0.05 t-0.54 0.05 q-0.1 0.08 -0.21 0.15 t-0.23 0.15 q-0.32 0.04 -0.49 -0.12 t-0.29 -0.42 q0.28 -0.22 0.59 -0.17 t0.61 0.03 q0.32 -0.02 0.63 -0.01 t0.63 0.01 z M44.239999999999995 13.32 q0.04 -0.4 0.42 -0.38 l0.33 0 t0.33 0.02 l-0.02 -0.04 q0 0.1 0.01 0.17 t-0.01 0.15 q-0.02 0.22 -0.1 0.29 t-0.3 0.11 q-0.08 0.02 -0.16 0.01 t-0.16 -0.01 l0.02 0.04 q-0.06 -0.38 -0.4 -0.4 z M44.94 11.48 q0.02 0.22 0.17 0.29 t0.31 0.11 q0.28 0.06 0.12 0.22 q-0.06 0.06 -0.14 0.1 q-0.06 0.02 -0.18 0.02 l-0.18 0 t-0.18 -0.02 q-0.3 -0.28 -0.28 -0.42 t0.38 -0.28 z M52.9 18.38 q0.1 -0.26 0.19 -0.34 t0.27 -0.04 q0.2 0.06 0.16 0.22 q-0.06 0.1 -0.12 0.1 q-0.14 0.02 -0.26 0.02 l-0.26 0 z M45.32 12.96 q0.1 -0.26 0.19 -0.33 t0.25 -0.03 q0.2 0.04 0.16 0.2 q-0.06 0.1 -0.12 0.1 q-0.12 0.02 -0.25 0.02 l-0.25 0 z M52.98 5.539999999999999 q-0.22 0.06 -0.34 0.09 t-0.24 0.07 q-0.06 0 -0.1 -0.12 q-0.04 -0.04 -0.01 -0.12 t0.13 -0.08 t0.22 0.05 t0.34 0.11 z M52.879999999999995 7.5 q0 0.3 -0.26 0.36 q-0.16 0.04 -0.3 -0.08 q-0.06 -0.04 -0.08 -0.12 t-0.06 -0.16 l-0.02 0.04 l0.76 0 z M57.9 15.620000000000001 q0.12 0 0.26 0.01 t0.3 0.03 q0.12 0.1 0.24 0.23 t0.24 0.27 l0 1.42 q-0.08 0.12 -0.12 0.14 q-0.28 0.12 -0.53 0.09 t-0.51 -0.03 q-0.12 -0.08 -0.23 -0.15 t-0.25 -0.15 q-0.12 0.16 -0.24 0.28 t-0.24 0.26 l0 0.58 q-0.08 0.1 -0.15 0.21 t-0.17 0.27 l0.22 0.22 t0.24 0.26 q0.12 -0.1 0.24 -0.16 t0.22 -0.14 q0.14 0 0.27 -0.01 t0.25 -0.01 q0.12 -0.04 0.21 -0.11 t0.18 -0.13 t0.2 -0.09 t0.23 0.01 q0.22 0.16 0.21 0.38 t-0.03 0.44 q-0.08 0.04 -0.14 0.11 t-0.14 0.07 q-0.58 0.02 -1.16 0.02 l-1.16 0 q-0.06 -0.06 -0.1 -0.08 t-0.06 -0.06 q-0.16 -0.34 -0.11 -0.71 t-0.03 -0.71 q-0.04 -0.08 -0.09 -0.15 t-0.09 -0.15 q-0.06 -0.16 0.04 -0.27 t0.16 -0.27 q0.06 -0.76 0.02 -1.54 t0 -1.54 q-0.1 -0.16 -0.17 -0.29 t-0.15 -0.25 l0 -0.88 q0.08 -0.22 0.22 -0.4 t0.08 -0.42 q-0.08 -0.12 -0.15 -0.23 t-0.15 -0.23 l0 -0.54 q0.02 -0.1 0.09 -0.19 t0.13 -0.18 t0.09 -0.2 t-0.01 -0.25 q-0.12 -0.18 -0.3 -0.42 l0 -3.8 q0.06 -0.1 0.12 -0.22 l0.12 -0.24 q-0.06 -0.14 -0.16 -0.28 q-0.1 -0.2 -0.07 -0.35 t0.17 -0.31 q0.06 -0.06 0.13 -0.12 t0.17 -0.14 q0.1 0.04 0.21 0.1 t0.27 0.12 q0.5 0.06 1.02 0.02 t1.04 0.04 q0.06 0.1 0.12 0.18 t0.06 0.16 q0.02 1.04 0.02 2.07 l0 2.07 l0 1.4 q0.2 0.26 0.42 0.25 t0.48 -0.03 q0.14 -0.14 0.3 -0.29 t0.32 -0.31 q0.1 -0.1 0.17 -0.2 t0.13 -0.24 q0.14 -0.28 0.28 -0.55 t0.3 -0.55 q0.14 -0.22 0.31 -0.41 t0.27 -0.47 q0.1 -0.24 0.3 -0.44 t0.3 -0.44 t0.25 -0.46 t0.25 -0.48 q0.08 -0.24 0.26 -0.45 t0.34 -0.43 q0.06 -0.06 0.1 -0.14 l0.08 -0.16 l0.4 -0.2 t0.46 -0.22 q0.48 -0.02 0.99 -0.01 t0.97 0.01 q0.26 0.2 0.28 0.39 t-0.04 0.35 q-0.08 0.24 -0.19 0.49 t-0.27 0.45 q-0.38 0.4 -0.6 0.87 t-0.5 0.93 q-0.1 0.06 -0.22 0.12 l-0.24 0.12 q-0.14 0.16 -0.12 0.34 t-0.02 0.38 l-0.28 0.32 t-0.28 0.34 q-0.1 0.14 -0.16 0.31 t-0.16 0.31 q-0.1 0.16 -0.22 0.28 t-0.34 0.12 q-0.02 -0.16 0 -0.32 t-0.1 -0.32 q-0.4 0.08 -0.5 0.5 q0.16 0.14 0.32 0.12 t0.32 0 q-0.06 0.26 -0.25 0.46 t-0.23 0.48 q0 0.08 -0.09 0.11 t-0.19 0.05 q-0.08 0.02 -0.14 0.08 t-0.16 0.12 l0.28 0.12 t0.4 0.16 q0.18 0.2 0.43 0.44 t0.41 0.4 q0.46 0.88 0.82 1.62 t0.74 1.44 q0.1 0.16 0.11 0.34 t0.03 0.34 l-0.5 0 q-0.18 0.2 -0.42 0.28 t-0.46 0.22 q0.06 0.06 0.11 0.13 t0.11 0.07 q0.16 0 0.34 0.02 t0.34 -0.1 q0.14 -0.12 0.29 -0.26 t0.17 -0.38 q0.24 0.04 0.39 0.2 t0.25 0.36 q0.1 0.16 0.15 0.31 t0.17 0.31 q0.1 0.14 0.16 0.31 t0.16 0.31 q0.14 0.18 0.19 0.4 t0.21 0.38 l0.24 0.24 t0.14 0.32 l-0.07 0.07 t-0.07 0.03 l-3.04 0 q-0.16 -0.08 -0.25 -0.2 t-0.16 -0.26 t-0.14 -0.27 t-0.21 -0.23 q-0.22 -0.16 -0.27 -0.43 t-0.23 -0.49 q-0.16 -0.22 -0.27 -0.45 t-0.29 -0.43 q-0.26 -0.28 -0.38 -0.61 t-0.3 -0.63 q-0.22 -0.38 -0.41 -0.78 t-0.53 -0.72 q-0.06 -0.04 -0.08 -0.13 t-0.04 -0.19 q-0.08 -0.22 -0.25 -0.36 t-0.35 -0.3 l-0.92 0 l-0.28 0.16 t-0.3 0.18 q-0.26 0.04 -0.42 -0.13 t-0.38 -0.21 q-0.16 -0.04 -0.31 -0.14 t-0.31 -0.2 q-0.2 -0.08 -0.36 0.2 q0.22 0.28 0.48 0.51 t0.6 0.37 q0.16 0.06 0.28 0.2 l0.24 0.28 q0.12 0.12 0.07 0.3 t-0.23 0.26 q-0.08 0.04 -0.17 0.04 t-0.15 0.06 q-0.06 0.04 -0.07 0.13 t-0.05 0.17 q-0.18 -0.04 -0.28 0.12 q-0.02 0.02 0.02 0.12 q0.1 0.12 0.24 -0.26 z M62.26 9.5 q-0.4 0.1 -0.28 0.22 q0.04 0.06 0.12 0.02 q0.16 -0.06 0.12 -0.28 q0.24 -0.06 0.29 -0.1 t-0.01 -0.12 q-0.02 -0.02 -0.06 -0.02 l-0.06 0 q-0.16 0.08 -0.12 0.28 z M62.22 14.52 q0.32 -0.1 0.38 -0.21 t-0.1 -0.35 q-0.02 -0.02 -0.06 -0.04 t-0.06 0 q-0.1 0.06 -0.1 0.12 q-0.02 0.14 -0.02 0.26 l0 0.26 q-0.24 0.08 -0.29 0.12 t0.03 0.1 q0.06 0.06 0.12 0.02 q0.12 -0.08 0.1 -0.28 z M56.879999999999995 16.52 q0.22 0.14 0.3 0.14 t0.3 -0.14 q-0.22 -0.14 -0.29 -0.14 t-0.31 0.14 z M64.92 18.2 q-0.08 0.16 -0.14 0.44 q0 0.06 0.12 0.1 q0.04 0.04 0.1 0.01 t0.1 -0.13 q0.06 -0.26 -0.18 -0.42 z M59.379999999999995 11.84 q0.22 0.12 0.28 0.15 t0.16 -0.01 q0.22 -0.06 0.14 -0.2 q-0.06 -0.1 -0.14 -0.1 q-0.26 -0.06 -0.44 0.16 z M65.6 17.9 q0 0.04 -0.02 0.06 t-0.02 0.04 q0.02 0.04 0.04 0.05 t0.06 0.05 q0.1 -0.04 0.1 -0.1 q0 -0.16 -0.16 -0.1 z M57.3 12.120000000000001 q0 0.04 -0.02 0.06 t-0.02 0.04 q0.02 0.04 0.1 0.12 q0.1 -0.1 0.1 -0.12 q0 -0.16 -0.16 -0.1 z M61.08 11.1 q-0.06 -0.1 -0.1 -0.1 q-0.1 0 -0.1 0.08 q-0.02 0.08 0.03 0.11 t0.11 -0.01 q0.02 0 0.06 -0.08 z M61.78 10.34 q-0.04 -0.02 -0.06 -0.04 t-0.04 -0.02 q-0.04 0.02 -0.12 0.1 q0.04 0.04 0.06 0.07 t0.04 0.03 q0.16 0 0.12 -0.14 z M65.08 7.140000000000001 q-0.04 -0.04 -0.07 -0.08 t-0.05 -0.04 q-0.3 0.1 -0.02 0.24 q0.02 0 0.06 -0.04 z M69.63999999999999 18.78 q-0.08 -0.12 -0.15 -0.23 t-0.15 -0.21 l0 -7.76 q0.1 -0.16 0.18 -0.32 t0.18 -0.32 q0 -0.12 -0.01 -0.25 t-0.01 -0.25 q-0.08 -0.12 -0.15 -0.24 t-0.17 -0.26 q-0.02 -0.96 -0.03 -1.95 t0.05 -2.01 q0.28 -0.12 0.55 -0.24 t0.55 -0.22 q0.16 0.1 0.27 0.16 t0.23 0.14 l0.42 -0.3 l2.72 0 q0.12 0.08 0.24 0.15 t0.26 0.15 q0.42 0.04 0.92 0.06 q0.12 0.08 0.27 0.16 t0.31 0.18 l0.56 0 q0.2 0.16 0.39 0.34 t0.41 0.34 q0.08 0.04 0.16 0.05 t0.18 0.05 q0.14 0.22 0.28 0.45 t0.26 0.47 q0.1 0.2 0.18 0.41 t0.18 0.43 l0 2.94 q-0.22 0.46 -0.43 0.86 t-0.43 0.82 q-0.12 0.02 -0.24 0.05 t-0.26 0.03 q-0.22 0 -0.34 0.14 q0.04 0.1 0.09 0.21 t0.11 0.21 q-0.22 0.22 -0.4 0.12 t-0.38 -0.22 q-0.06 -0.04 -0.13 0.01 t-0.09 0.17 t-0.01 0.26 t0.01 0.26 q0.06 0.08 0.12 0.14 t0.14 0.1 q0.32 0.1 0.51 0.32 t0.33 0.54 q0.1 0.24 0.22 0.47 t0.24 0.47 l0.2 0.4 t0.22 0.38 q0.14 0.22 0.22 0.48 t0.28 0.46 q0 0.24 0.16 0.41 t0.2 0.39 q0.06 0.28 0.24 0.48 t0.22 0.48 q0.02 0.12 0.12 0.23 t0.14 0.23 q0.08 0.26 -0.24 0.42 l-2.98 0 q-0.26 -0.06 -0.3 -0.24 t-0.14 -0.32 q-0.22 -0.24 -0.3 -0.55 t-0.3 -0.53 q-0.02 -0.2 -0.11 -0.35 t-0.19 -0.31 q-0.08 -0.1 -0.09 -0.23 t-0.03 -0.26 t-0.05 -0.26 t-0.15 -0.23 q-0.16 -0.16 -0.22 -0.38 t-0.16 -0.42 q-0.12 -0.22 -0.27 -0.45 t-0.19 -0.49 q-0.06 -0.26 -0.22 -0.39 t-0.3 -0.27 q-0.52 -0.16 -1.1 -0.04 q-0.04 0.08 -0.11 0.15 t-0.07 0.15 q-0.02 1.08 -0.02 2.16 l0 2.16 l0 0.86 q-0.1 0.08 -0.17 0.15 t-0.15 0.07 q-0.58 0.02 -1.17 0.02 l-1.17 0 q-0.1 -0.1 -0.22 -0.26 l0 -0.56 q0.06 -0.1 0.13 -0.21 t0.15 -0.21 z M76.17999999999999 16.04 q0.26 0 0.4 -0.15 t0.24 -0.33 q0.02 -0.02 -0.02 -0.12 q-0.04 -0.02 -0.07 -0.04 t-0.07 -0.02 q-0.42 -0.02 -0.44 0.36 q-0.02 0.1 -0.01 0.18 t0.01 0.16 q-0.4 0.1 -0.28 0.22 q0.06 0.08 0.12 0.02 q0.16 -0.06 0.12 -0.28 z M72.24 12.46 l-0.02 -0.02 q0.02 0.3 0.32 0.36 q0.14 0.02 0.27 0.01 t0.27 -0.01 q0.3 -0.28 0.59 -0.54 t0.57 -0.5 q0.14 -0.02 0.23 -0.02 l0.19 0 q0.06 -0.02 0.18 -0.02 q0.18 -0.12 0.28 -0.21 t0.19 -0.22 t0.2 -0.34 t0.33 -0.61 l0 -1.58 q-0.16 -0.28 -0.28 -0.5 t-0.22 -0.38 q-0.26 -0.14 -0.46 -0.25 t-0.4 -0.23 l-1.94 0 q-0.42 0.26 -0.18 0.62 q0.04 0.08 0.09 0.16 t0.11 0.2 l0 1.92 q0 0.04 -0.04 0.16 q-0.04 0.08 -0.09 0.15 t-0.09 0.17 q0.04 0.1 0.09 0.21 t0.09 0.23 q-0.1 0.14 -0.21 0.27 t-0.29 0.17 q-0.08 -0.04 -0.15 -0.1 t-0.15 -0.1 q-0.12 0.06 -0.16 0.15 t-0.04 0.15 t0.03 0.09 t0.05 -0.03 q-0.06 0.24 -0.15 0.38 t-0.16 0.25 t-0.11 0.19 t-0.02 0.2 q-0.4 0.08 -0.26 0.22 q0.06 0.06 0.12 0.02 q0.16 -0.1 0.12 -0.28 q0.16 0.08 0.3 0.14 t0.3 0.14 q0.1 -0.1 0.12 -0.14 q0.04 -0.08 0.04 -0.16 t0.04 -0.18 q0.08 -0.14 0.3 -0.14 z M74.46 13.780000000000001 q0.5 0.18 0.62 -0.1 q0.1 -0.18 0.16 -0.38 t0.16 -0.42 l-0.52 0 q-0.04 0.14 -0.08 0.26 t-0.1 0.22 q-0.04 0.1 -0.11 0.21 t-0.13 0.21 z M70.22 15.3 q0.1 -0.08 0.19 -0.15 t0.19 -0.17 q0.2 -0.16 0.04 -0.26 q-0.08 -0.08 -0.14 -0.08 q-0.18 0 -0.35 -0.03 t-0.33 0.13 q0 0.2 0.12 0.31 t0.28 0.25 z M74.89999999999999 15.440000000000001 l-0.06 0.1 q0.04 0.1 0.1 0.1 q0.1 0 0.1 -0.08 q0.02 -0.08 -0.03 -0.11 t-0.11 -0.01 z M69.82 13.64 l-0.04 0.1 q0.04 0.1 0.1 0.1 q0.1 0 0.1 -0.1 q0.02 -0.14 -0.16 -0.1 z M71.69999999999999 10.34 q-0.28 0.1 0 0.24 q0 0.02 0.04 -0.02 l0.08 -0.08 q-0.04 -0.04 -0.06 -0.07 t-0.06 -0.07 z M70.32 10.4 q-0.02 -0.02 -0.05 -0.04 t-0.05 0 q-0.04 0.02 -0.12 0.1 q0.04 0.04 0.06 0.07 t0.06 0.03 q0.16 0 0.1 -0.16 z M78.32 9.02 q-0.04 -0.04 -0.07 -0.08 t-0.05 -0.02 q-0.14 0.04 -0.14 0.1 t0.14 0.12 q0.02 0 0.05 -0.04 t0.07 -0.08 z M75.63999999999999 6.6 q0.06 -0.02 0.14 -0.1 q-0.1 -0.1 -0.12 -0.1 t-0.12 0.1 q0.06 0.04 0.1 0.1 z M72.24 12.46 q0.1 -0.26 0.18 -0.32 t0.26 -0.02 q0.22 0.04 0.18 0.2 q-0.04 0.08 -0.12 0.12 l-0.52 0 z M83.6 13.379999999999999 l0 0.9 q-0.34 0.2 -0.69 0.38 t-0.69 0.36 q-0.04 0.2 -0.05 0.37 t-0.05 0.37 l-0.9 0.42 q-0.1 -0.1 -0.1 -0.14 q-0.04 -2.8 -0.04 -5.56 l0 -5.54 q0.16 -0.1 0.28 -0.15 t0.34 -0.07 t0.6 -0.01 t1.08 0.03 q0.1 0.08 0.21 0.15 t0.21 0.13 q0.12 -0.08 0.23 -0.15 t0.21 -0.15 l5.4 0 q0.28 0 0.46 0.24 l0 1.96 q0 0.04 -0.02 0.08 l-0.04 0.08 q-0.18 0.06 -0.31 0.09 t-0.41 0.05 t-0.8 0.02 l-1.48 0 q-0.72 0 -1.43 0.01 t-1.41 0.01 q-0.06 0.1 -0.12 0.17 t-0.08 0.15 l0 1.54 q-0.1 0.22 -0.25 0.34 t-0.15 0.34 l0.04 -0.04 q-0.08 0.04 -0.17 0.07 t-0.13 0.09 q-0.06 0.12 -0.11 0.24 t-0.09 0.24 q-0.16 -0.06 -0.31 -0.13 t-0.3 -0.12 t-0.31 -0.03 t-0.34 0.16 q0.04 0.12 0.1 0.23 t0.12 0.21 q-0.06 0.08 -0.12 0.15 t-0.12 0.17 q0.16 0.2 0.34 0.39 t0.34 0.37 q0 0.22 -0.08 0.35 t-0.3 0.17 q-0.1 -0.4 -0.24 -0.26 q-0.04 0.04 0 0.12 q0.06 0.16 0.28 0.12 q-0.04 0.2 -0.16 0.28 t-0.32 0.12 q-0.28 0.06 0 0.3 l0.54 0 q0.1 -0.06 0.2 -0.13 t0.22 -0.15 q0.36 -0.16 0.56 0.2 q0.04 0.08 0.05 0.17 t0.07 0.15 q0.04 0.06 0.12 0.09 t0.16 0.07 z M85.41999999999999 6.18 q0 -0.22 -0.12 -0.26 q-0.08 -0.04 -0.12 0 q-0.08 0.08 -0.02 0.11 t0.28 0.11 q0.1 0.26 0.18 0.33 t0.26 0.03 q0.24 -0.04 0.16 -0.2 q-0.06 -0.1 -0.12 -0.1 q-0.12 -0.02 -0.25 -0.02 l-0.25 0 z M83.85999999999999 5.460000000000001 q-0.06 0 -0.14 -0.01 t-0.18 0.01 q-0.22 0.06 -0.14 0.22 q0.04 0.1 0.14 0.1 q0.1 0.02 0.18 0.02 l0.18 0 q0.16 0 0.27 -0.07 t0.05 -0.15 q-0.12 -0.18 -0.36 -0.12 z M84.25999999999999 6.640000000000001 q-0.04 0 -0.07 -0.02 t-0.05 -0.02 q-0.04 0.02 -0.08 0.05 t-0.04 0.05 q0.1 0.24 0.22 0.06 q0.02 -0.02 0.02 -0.12 z M83.24 16.259999999999998 q0.04 0.08 0.07 0.17 t0.09 0.13 q0.32 0.2 0.43 0.29 t0.27 0.37 q0.02 0.04 0.06 0.07 l0.12 0.09 l1.04 0 l4.5 0 q0.04 0 0.08 0.03 t0.08 0.05 q0.08 0.16 -0.02 0.25 t-0.14 0.19 q0.04 0.08 0.1 0.14 t0.1 0.16 q-0.02 0.26 -0.18 0.38 t-0.36 0.24 l-0.52 0 q-0.12 0.08 -0.23 0.16 t-0.21 0.14 q-0.12 0.06 -0.24 0.1 t-0.28 0.08 q0.1 0.08 0.16 0.13 t0.14 0.07 t0.19 0.02 t0.33 -0.02 q0.1 -0.08 0.21 -0.15 t0.23 -0.15 q0.14 -0.02 0.26 0 t0.22 0.12 t0.17 0.21 t0.17 0.21 q-0.1 0.04 -0.18 0.09 t-0.16 0.05 q-0.86 0.02 -1.69 0.02 l-1.67 0 q-0.14 -0.1 -0.25 -0.18 t-0.21 -0.16 q-0.14 -0.04 -0.25 0 t-0.2 0.11 t-0.17 0.14 t-0.2 0.09 q-0.16 -0.02 -0.34 0 t-0.36 -0.14 q0.08 -0.1 0.15 -0.2 t0.11 -0.22 q0.04 -0.08 0.04 -0.17 t0.04 -0.17 q0.06 -0.1 0.14 -0.21 t0.18 -0.25 q0 -0.12 0.01 -0.25 t-0.01 -0.25 q-0.02 -0.18 -0.2 -0.27 t-0.34 0.01 q-0.24 0.16 -0.44 0.32 l-0.88 0 q-0.26 0.12 -0.18 0.22 q0.04 0.1 0.14 0.1 q0.12 0.02 0.26 0.01 t0.26 0.03 q0.06 0.02 0.12 0.08 t0.1 0.12 q-0.04 0.08 -0.1 0.15 t-0.1 0.15 q0.04 0.1 0.09 0.22 t0.11 0.22 l-0.48 0.24 t-0.48 0.22 q-0.18 0.1 -0.32 -0.12 q0.06 -0.1 0.12 -0.21 t0.14 -0.25 q0 -0.04 0.01 -0.07 t-0.01 -0.07 q-0.18 -0.36 -0.32 -0.73 t-0.52 -0.59 q-0.22 0.04 -0.35 0.19 t-0.23 0.33 q0 0.34 0.24 0.44 l0.44 0.22 q0.04 0.24 0.04 0.47 t-0.24 0.39 l-0.62 0 q-0.14 -0.08 -0.18 -0.15 t-0.04 -0.17 q-0.02 -0.64 -0.02 -1.26 l0 -1.26 q0 -0.08 0.05 -0.16 t0.09 -0.18 q0.22 0.16 0.41 0.31 t0.39 0.31 q0.1 -0.1 0.12 -0.24 t0.04 -0.27 t0.06 -0.26 t0.2 -0.23 l0.84 0 z M83.93999999999998 11.12 q0.04 -0.16 0.05 -0.27 t0.05 -0.21 q0.1 -0.12 0.23 -0.24 t0.29 -0.26 q0.9 -0.02 1.77 -0.02 t1.77 0.04 q0.06 0.1 0.12 0.16 t0.06 0.14 q0.02 0.5 0.02 0.99 l0 0.99 q-0.08 0.04 -0.15 0.1 t-0.15 0.1 l-1.22 0 q-0.12 -0.08 -0.24 -0.15 t-0.22 -0.13 q-0.08 0.04 -0.15 0.09 t-0.15 0.11 l-0.36 -0.16 t-0.36 -0.11 t-0.35 0.04 t-0.35 0.27 q-0.4 -0.2 -0.79 -0.38 t-0.79 -0.38 q-0.02 0 -0.02 -0.04 l0 -0.08 q0.16 -0.28 0.41 -0.42 t0.53 -0.18 z M86.15999999999998 11.6 q-0.38 0.1 -0.28 0.24 q0.1 0.04 0.12 0.02 q0.18 -0.08 0.14 -0.3 q0.4 -0.1 0.26 -0.22 q-0.06 -0.06 -0.12 -0.02 q-0.16 0.1 -0.12 0.28 z M83.63999999999999 13.4 q0 -0.12 -0.01 -0.25 t0.01 -0.27 q0 -0.06 0.1 -0.12 q0.16 -0.08 0.22 0.16 q0.04 0.18 -0.03 0.27 t-0.33 0.19 z M83.27999999999999 16.3 q-0.04 -0.18 0.12 -0.28 q0.02 -0.02 0.06 -0.01 t0.06 0.03 q0.12 0.12 -0.28 0.22 z M83.79999999999998 14.9 q0.04 0.04 0.08 0.07 t0.04 0.05 q-0.14 0.3 -0.24 -0.02 q0 -0.02 0.04 -0.04 t0.08 -0.06 z M83.6 9.8 q0.42 0.12 0.28 0.22 q-0.06 0.06 -0.14 0.02 q-0.14 -0.1 -0.1 -0.28 z M92.87999999999998 18.38 q-0.06 -0.16 -0.13 -0.31 t-0.13 -0.29 q0.06 -0.12 0.14 -0.24 t0.1 -0.24 q0.04 -0.22 0.07 -0.43 t0.19 -0.39 q0.08 -0.08 0.1 -0.19 t0.02 -0.23 t0.01 -0.22 t0.07 -0.2 q0.16 -0.2 0.21 -0.41 t0.17 -0.39 q0.14 -0.2 0.19 -0.41 t0.09 -0.43 q0.02 -0.22 0.18 -0.39 t0.14 -0.41 t0.1 -0.42 t0.2 -0.4 q0.1 -0.22 0.19 -0.41 t0.23 -0.37 q0.02 -0.22 0.03 -0.44 t0.01 -0.44 q0.16 -0.28 0.29 -0.56 t0.29 -0.56 l0.08 -0.16 t0.02 -0.16 q-0.04 -0.3 0.11 -0.52 t0.27 -0.48 l0 -0.5 q0.1 -0.12 0.18 -0.23 t0.12 -0.23 q0.1 -0.22 0.08 -0.44 t0.14 -0.4 q0.12 -0.16 0.15 -0.33 t0.07 -0.35 q0.04 -0.3 0.21 -0.56 t0.31 -0.54 q0.04 -0.12 0.16 -0.2 t0.22 -0.18 l2.16 0 q0.06 0.12 0.11 0.24 t0.11 0.24 t0.14 0.23 t0.16 0.21 q0 0.14 0.01 0.27 t0.03 0.29 q0.06 0.1 0.13 0.22 t0.17 0.28 q0 0.1 0.01 0.21 t0.03 0.25 l0 0.48 q0.1 0.16 0.19 0.27 t0.19 0.27 l0 0.84 l-0.43 0 t-0.43 0.02 q-0.04 0 -0.09 0.05 t-0.03 0.05 q0.04 0.06 0.07 0.13 t0.09 0.07 q0.24 0.06 0.5 0 q0.28 -0.04 0.28 -0.36 q0.04 0.02 0.09 0.02 t0.07 0.04 q0.2 0.24 0.33 0.51 t0.25 0.55 q0.06 0.16 0.16 0.32 t0.2 0.36 l0 0.8 q0.22 0.38 0.4 0.72 t0.32 0.74 q-0.06 0.28 0.11 0.51 t0.27 0.51 l0 0.8 q-0.14 0.22 -0.3 0.25 t-0.34 0.05 q-0.1 0 -0.17 0.03 t-0.15 0.07 q-0.04 0.02 -0.07 0.06 t-0.07 0.08 q0 0.12 0.01 0.25 t-0.01 0.27 q-0.06 0.3 -0.38 0.3 l0.04 0.02 q-0.04 -0.08 -0.06 -0.15 t-0.08 -0.13 q-0.12 -0.14 -0.26 0.28 l0.04 -0.04 q-0.38 0.06 -0.4 0.4 l0.02 -0.02 q-1.2 0 -2.41 0.01 t-2.47 0.01 l-0.15 0.3 t-0.17 0.3 l-0.24 0.12 t-0.26 0.12 q0.06 0.1 0.13 0.2 t0.11 0.2 q0.08 0.18 -0.02 0.36 t-0.26 0.18 q-0.22 0.02 -0.45 0.02 l-0.45 0 l-1.06 0 q-0.18 0.08 -0.3 0.22 t-0.34 0.12 z M101.91999999999999 14.4 l-0.25 0 t-0.25 0.02 q-0.08 0 -0.12 0.1 q-0.08 0.14 0.16 0.18 q0.18 0.04 0.25 -0.02 t0.17 -0.32 q0.14 0 0.26 0.01 t0.24 -0.01 q0.24 -0.06 0.12 -0.22 q-0.06 -0.1 -0.12 -0.1 q-0.12 -0.02 -0.24 -0.01 t-0.26 0.01 q0 -0.32 -0.26 -0.36 q-0.12 -0.04 -0.25 -0.03 t-0.25 0.03 q-0.06 0.02 -0.1 0.09 t-0.08 0.11 l0.07 0.07 t0.07 0.03 q0.22 0.02 0.42 0.02 l0.42 0 l0 0.4 z M99.01999999999998 9.34 q-0.14 -0.02 -0.27 -0.03 t-0.25 -0.01 q-0.24 -0.16 -0.21 -0.38 t0.01 -0.44 q0.08 -0.12 0.15 -0.23 t0.13 -0.21 q-0.22 -0.1 -0.3 -0.1 t-0.32 0.14 l-0.04 0.36 t-0.06 0.44 q-0.18 0.18 -0.38 0.37 t-0.34 0.33 q-0.24 0.1 -0.37 0.16 t-0.23 0.1 q-0.04 0.12 -0.05 0.2 t-0.05 0.16 q-0.16 0.22 -0.33 0.43 t-0.33 0.43 q-0.04 0.08 -0.01 0.16 t0.09 0.16 q0.48 -0.1 0.86 -0.38 t0.74 -0.58 q0.14 0 0.27 -0.01 t0.27 0.01 q0.04 0 0.08 0.03 t0.08 0.07 q-0.04 0.28 -0.17 0.55 t-0.11 0.57 q-0.22 0.26 -0.28 0.56 t-0.14 0.6 q-0.14 0.16 -0.27 0.34 t-0.27 0.36 l0.07 0.07 t0.07 0.03 q0.7 0.08 1.42 0.07 t1.42 -0.07 q0.04 0 0.07 -0.05 t0.09 -0.09 l0 -0.64 q-0.1 -0.14 -0.16 -0.26 t-0.16 -0.24 q-0.02 -0.22 -0.02 -0.44 t-0.02 -0.46 l-0.32 -0.6 t-0.32 -0.62 q-0.04 -0.04 -0.03 -0.11 t-0.03 -0.23 l0 -0.56 q0.12 0 0.25 0.01 t0.25 -0.01 q0.08 0 0.14 -0.1 q0.08 -0.16 -0.16 -0.2 q-0.2 -0.04 -0.28 0.03 t-0.18 0.31 z M97.99999999999999 14.2 q0.46 0.4 0.94 0 q-0.42 -0.36 -0.94 0 z M98.59999999999998 15.3 q-0.06 -0.04 -0.11 -0.1 t-0.11 -0.06 q-0.08 -0.02 -0.15 0.01 t-0.15 0.07 q-0.02 0 -0.03 0.04 t0.01 0.06 q0.1 0.2 0.28 0.12 q0.08 -0.02 0.14 -0.06 z M100.6 11.16 q-0.04 0 -0.09 -0.01 t-0.09 0.01 q-0.1 0 -0.16 0.06 t-0.04 0.12 q0.08 0.18 0.3 0.12 t0.2 -0.18 q0 -0.04 -0.04 -0.06 t-0.08 -0.06 z M100.33999999999999 6.9399999999999995 q-0.1 -0.1 -0.12 -0.1 q-0.16 0 -0.34 0.06 q-0.02 0 -0.03 0.04 t-0.01 0.08 q0.04 0.1 0.18 0.12 t0.3 -0.08 q0.02 -0.02 0.02 -0.12 z M101.87999999999998 15.82 q0.06 0.3 0.34 0.32 q0.28 0.06 0.38 -0.26 q0.02 -0.04 0.02 -0.09 t0.02 -0.09 t0.05 -0.07 t0.05 -0.07 q0.28 0.16 0.57 0.22 t0.59 0.1 l0.07 0.07 t0.05 0.07 q0.04 0.08 0.04 0.16 t0.02 0.18 q0.16 0.2 0.32 0.44 q0.02 0.14 0.02 0.27 l0 0.27 q0.2 0.26 0.31 0.54 t0.07 0.6 q0.16 0.24 0.32 0.44 q0.02 0.22 0.05 0.44 t-0.19 0.38 q-0.1 -0.08 -0.21 -0.15 t-0.23 -0.13 q-0.2 -0.04 -0.34 0.06 t-0.3 0.2 q-0.28 0.06 -0.54 0.06 t-0.6 -0.04 q-0.1 -0.1 -0.25 -0.2 t-0.19 -0.26 q-0.06 -0.22 -0.18 -0.4 t-0.2 -0.38 q-0.08 -0.18 -0.15 -0.33 t-0.15 -0.31 t-0.1 -0.35 t-0.06 -0.41 l-0.3 -0.42 l0 -0.5 l-0.02 0.02 q0.38 -0.06 0.4 -0.4 l-0.04 0.04 l0.4 0 z M102.89999999999999 18.94 q0 -0.08 -0.02 -0.1 q-0.1 -0.16 -0.22 0.06 l0.04 0.04 q0.06 0.06 0.08 0.06 t0.05 -0.02 t0.07 -0.04 z M104.25999999999999 18.28 q0.04 -0.04 0.07 -0.05 t0.03 -0.05 q0.02 -0.04 -0.01 -0.07 t-0.07 -0.03 q-0.16 -0.04 -0.12 0.14 q0.02 0.04 0.05 0.04 t0.05 0.02 z M92.83999999999999 18.34 q0.02 0.04 0.02 0.08 t0.04 0.08 q0.04 0.06 0.1 0.11 t0.14 0.13 l0.82 0 l-0.02 -0.04 l0 0.54 l-0.24 0.24 t-0.22 0.24 q-0.36 0.04 -0.69 0.07 t-0.63 -0.21 l0 -0.52 q0.1 -0.28 0.27 -0.46 t0.45 -0.22 z M95.01999999999998 18.7 l0 0.86 q-0.08 0.06 -0.14 0.11 t-0.16 0.07 q-0.12 0.04 -0.25 -0.03 t-0.15 -0.17 q-0.02 -0.14 0 -0.27 t-0.02 -0.27 q-0.06 -0.26 -0.36 -0.3 l0.02 0.04 q0.04 -0.3 0.24 -0.36 q0.16 -0.04 0.3 0.04 q0.16 0.08 0.27 0.19 t0.29 0.13 z M95.05999999999999 18.74 q0.08 -0.42 0.22 -0.26 q0.02 0.02 0.02 0.1 q-0.1 0.16 -0.28 0.12 z M112.03999999999998 18.26 q-0.32 -0.02 -0.63 -0.02 t-0.61 -0.02 q-0.1 -0.18 -0.15 -0.33 t-0.07 -0.43 t-0.01 -0.8 t0.05 -1.46 q0.08 -0.1 0.15 -0.22 t0.15 -0.24 l0 -1.6 q-0.1 -0.16 -0.18 -0.32 t-0.18 -0.34 l0 -4.82 q-0.08 -0.08 -0.15 -0.13 t-0.15 -0.13 l-3.04 0 q-0.06 -0.06 -0.13 -0.12 t-0.13 -0.12 q-0.04 -0.62 -0.01 -1.24 t-0.01 -1.22 q0.2 -0.12 0.39 -0.16 t0.38 -0.04 t0.36 0.02 t0.35 0 q0.32 -0.02 0.63 -0.01 t0.63 0.01 l1.44 0 l1.46 0 l1.26 0 l1.46 0 q0.24 0.1 0.5 0.26 q0.14 -0.08 0.48 -0.24 q0.12 0 0.29 -0.01 t0.35 0.01 q0.08 0 0.16 0.02 t0.18 0.04 q0.04 0.04 0.08 0.07 t0.04 0.07 q0.02 0.4 0.03 0.8 t0.03 0.82 q-0.08 0.12 -0.14 0.23 t-0.14 0.23 q0.04 0.1 0.09 0.21 t0.11 0.27 q-0.14 0.02 -0.27 0.05 t-0.25 0.03 q-0.68 0.02 -1.35 0.02 t-1.35 0.02 q-0.08 0 -0.15 0.07 t-0.17 0.13 l0 3.4 l-0.12 0.24 t-0.14 0.26 q0.04 0.12 0.11 0.25 t0.11 0.28 t0.03 0.31 t-0.11 0.36 q-0.08 0.08 -0.19 0.2 t-0.23 0.24 q-0.16 0.02 -0.3 0.02 t-0.32 0.02 q-0.1 0.08 -0.24 0.16 t-0.3 0.18 q-0.1 0.04 -0.2 0.02 t-0.2 -0.03 t-0.19 0.04 t-0.15 0.19 q0.24 0.12 0.47 0.24 t0.45 0.26 q0.1 -0.04 0.18 -0.05 t0.16 -0.05 q0.14 -0.1 0.28 -0.19 t0.36 -0.01 q0.16 0.12 0.18 0.28 t0.01 0.33 t0.04 0.32 t0.27 0.23 q-0.1 0.16 -0.16 0.24 t-0.1 0.18 q-0.04 0.26 -0.05 0.52 t-0.03 0.54 q-0.16 0.08 -0.32 0.17 t-0.32 0.19 q0.16 0.1 0.33 0.21 t0.35 0.23 l0 2.34 q-0.18 0.18 -0.24 0.26 q-0.58 0 -1.18 0.01 t-1.18 -0.01 q-0.06 0 -0.13 -0.07 l-0.13 -0.13 q-0.02 -0.3 -0.03 -0.48 t0 -0.29 t0.06 -0.19 t0.13 -0.22 q0.28 -0.04 0.54 -0.06 t0.52 -0.06 q0.16 -0.02 0.16 -0.28 q0.42 -0.12 0.28 -0.22 q-0.04 -0.04 -0.12 -0.06 t-0.16 -0.06 q-0.1 -0.42 -0.22 -0.26 q-0.02 0.02 -0.03 0.06 t0.01 0.06 q0.08 0.14 0.28 0.12 l0 0.4 z M109.51999999999998 6.140000000000001 q0.1 0.04 0.16 0.08 t0.14 0.06 q0.32 0.04 0.36 -0.24 q0.04 -0.12 0 -0.22 t-0.22 -0.14 q-0.1 0.1 -0.21 0.22 t-0.23 0.24 z M112.85999999999999 17.62 q0 0.02 -0.02 0.04 t-0.02 0.06 q0.02 0.04 0.05 0.08 t0.05 0.02 q0.2 -0.1 0.06 -0.2 q-0.02 -0.02 -0.05 -0.01 t-0.07 0.01 z M111.41999999999999 14.719999999999999 q-0.06 0.06 -0.04 0.1 q0 0.1 0.08 0.1 q0.04 0 0.08 -0.03 t0.04 -0.07 q0 -0.16 -0.16 -0.1 z M114.77999999999999 6.039999999999999 q-0.16 -0.04 -0.16 0.12 q0 0.02 0.1 0.12 q0.04 -0.04 0.07 -0.06 t0.05 -0.06 q0 -0.02 -0.02 -0.05 t-0.04 -0.07 z M117.31999999999998 16.06 q-0.22 0.04 -0.28 -0.14 q-0.02 -0.02 -0.01 -0.06 t0.03 -0.06 q0.14 -0.14 0.22 0.28 z M119.27999999999999 19.88 q-0.02 -0.36 -0.04 -1.35 t-0.03 -2.33 t-0.02 -2.88 t-0.01 -2.99 t0.01 -2.66 t0.03 -1.91 q0.08 -0.12 0.19 -0.17 t0.25 -0.09 q0.04 -0.02 0.11 -0.09 t0.05 -0.11 q-0.02 -0.1 -0.1 -0.13 t-0.18 -0.03 q-0.08 -0.02 -0.15 -0.08 t-0.13 -0.1 q0.08 -0.12 0.21 -0.14 t0.26 -0.05 t0.22 -0.08 t0.11 -0.23 l2.08 0 q0.08 0.02 0.14 0.09 t0.14 0.13 l0 1.62 q-0.04 0.22 -0.19 0.38 t-0.11 0.42 q0.08 0.12 0.15 0.23 t0.15 0.23 l0 0.56 q-0.04 0.1 -0.11 0.21 t-0.15 0.23 q0.1 0.22 0.26 0.44 t0 0.54 l-0.12 0.24 t-0.14 0.24 q0.06 0.1 0.12 0.21 t0.14 0.25 l0 9.14 q0 0.04 -0.04 0.16 q-0.2 0.08 -0.34 0.12 t-0.43 0.05 t-0.83 -0.01 t-1.5 -0.06 z M119.89999999999998 6.24 q-0.08 -0.4 -0.22 -0.26 q-0.06 0.06 -0.02 0.12 q0.08 0.14 0.28 0.12 q-0.04 0.22 0.14 0.3 q0.12 0.06 0.24 0.1 t0.24 0.1 q-0.08 0.16 -0.16 0.31 t-0.11 0.3 t0 0.32 t0.19 0.35 q0.2 -0.02 0.48 -0.06 q-0.06 -0.14 -0.12 -0.25 t-0.12 -0.21 q0.08 -0.12 0.14 -0.24 t0.14 -0.22 l0 -0.52 q0.1 -0.12 0.17 -0.24 t0.17 -0.24 q-0.2 -0.18 -0.41 -0.15 t-0.41 0.01 q-0.16 0.1 -0.29 0.23 t-0.33 0.13 z M120.37999999999998 13.1 q0.14 -0.16 0.14 -0.19 t-0.1 -0.13 q-0.22 -0.04 -0.42 -0.04 t-0.36 0.16 q0.14 0.22 0.34 0.19 t0.4 0.01 z M121.49999999999999 15 q-0.02 0.04 -0.04 0.06 t-0.02 0.04 q0.02 0.04 0.1 0.12 l0.1 -0.1 q0.02 -0.08 -0.03 -0.11 t-0.11 -0.01 z M121.19999999999999 8.46 q-0.04 0.04 -0.09 0.07 t-0.03 0.03 q0.1 0.28 0.22 0.02 q0.02 -0.02 -0.02 -0.05 t-0.08 -0.07 z M131.55999999999997 5.58 q0.08 0.04 0.18 0.07 t0.1 0.07 q0.02 0.18 0.12 0.33 t0.19 0.29 t0.15 0.29 t0.04 0.33 q0.18 0.02 0.29 0.03 t0.25 0.03 l0.23 -0.23 t0.27 -0.25 q-0.2 -0.22 -0.35 -0.38 t-0.29 -0.32 q-0.1 -0.18 -0.08 -0.36 t0 -0.36 q0.26 -0.36 0.6 -0.14 q0.16 0.1 0.31 0.19 t0.37 0.11 q0.34 0.34 0.69 0.67 t0.73 0.67 q0.14 0.14 0.17 0.31 t0.11 0.35 q0.34 0.34 0.67 0.7 t0.67 0.7 q0.02 0.26 0.02 0.49 t0.02 0.45 q0.2 0.28 0.29 0.63 t0.37 0.57 q0.02 0.66 0.03 1.28 t-0.01 1.22 q-0.22 0.26 -0.35 0.4 t-0.19 0.24 t-0.09 0.19 t-0.07 0.23 q0.1 0.1 0.17 0.22 t0.15 0.22 l0 0.19 t-0.04 0.15 q-0.14 0.18 -0.21 0.39 t-0.17 0.41 q-0.22 0.34 -0.39 0.7 t-0.51 0.6 q-0.22 0.16 -0.32 0.41 t-0.26 0.47 t-0.36 0.4 t-0.38 0.38 q-0.1 0.1 -0.21 0.19 t-0.25 0.19 l-0.86 0 l0.04 0.04 q-0.04 -0.22 0.09 -0.34 t0.23 -0.32 q-0.04 -0.1 -0.07 -0.2 t-0.07 -0.2 q-0.34 -0.04 -0.65 -0.08 t-0.59 0.18 q0.08 0.1 0.15 0.21 t0.15 0.25 l0 0.5 l0.04 -0.04 q-0.14 0.02 -0.27 0.02 t-0.27 0.04 q-0.02 0 -0.12 0.1 q0.1 0.26 0.2 0.44 q-0.26 0.18 -0.54 0.15 t-0.56 0.01 q-0.14 0.1 -0.44 0.26 q-0.1 -0.06 -0.21 -0.12 t-0.23 -0.12 q-0.42 -0.02 -0.9 -0.06 l-0.28 -0.16 t-0.3 -0.16 q-0.14 -0.02 -0.27 -0.02 t-0.23 -0.02 q-0.22 -0.1 -0.43 -0.22 t-0.55 -0.3 q-0.22 -0.24 -0.58 -0.53 t-0.56 -0.75 q0.3 0 0.34 -0.3 q0.04 -0.14 0.03 -0.27 t-0.01 -0.27 q-0.14 -0.16 -0.28 -0.2 t-0.34 0.12 q0.06 0.1 0.12 0.21 t0.14 0.25 q0 0.1 0.01 0.23 t0.03 0.25 q-0.14 0 -0.18 -0.04 l-0.9 -0.84 l0 -0.36 q0.16 -0.24 0.41 -0.21 t0.47 -0.07 q0.14 -0.14 0.15 -0.24 t-0.11 -0.32 q-0.22 0.1 -0.46 0.22 t-0.52 0.04 q-0.42 -0.14 -0.6 -0.58 q0.12 -0.08 0.26 -0.14 t0.28 -0.13 t0.24 -0.17 t0.16 -0.28 q-0.14 -0.16 -0.25 -0.33 t-0.11 -0.39 q-0.12 -0.02 -0.23 0.02 t-0.21 0.1 t-0.2 0.08 t-0.24 -0.04 q-0.04 -0.1 -0.09 -0.22 t-0.05 -0.24 q-0.02 -0.82 -0.01 -1.61 t0.01 -1.57 q0.1 -0.16 0.16 -0.27 t0.14 -0.23 q0.02 -0.22 0.03 -0.43 t0.03 -0.43 q0.12 -0.26 0.22 -0.5 t0.26 -0.46 t0.34 -0.42 t0.38 -0.4 q0.18 -0.18 0.26 -0.44 t0.32 -0.42 q0.18 -0.14 0.37 -0.24 t0.37 -0.24 q0.22 -0.16 0.41 -0.35 t0.41 -0.35 t0.46 -0.26 t0.5 -0.24 q0.18 0.08 0.37 0.16 t0.39 0.16 l0 0.76 q-0.06 0.04 -0.13 0.06 t-0.13 0.06 q-0.06 0.06 0 0.12 q0.08 0.06 0.12 0.01 t0.1 -0.27 q0.28 -0.02 0.47 -0.21 t0.47 -0.23 q0.04 0 0.06 -0.05 t0.06 -0.11 q-0.28 -0.12 -0.53 -0.1 t-0.53 0 q0.2 -0.7 0.88 -0.7 q0.1 0.08 0.21 0.14 t0.21 0.12 q0.12 -0.08 0.23 -0.14 t0.21 -0.12 l0.88 0 q0.32 0.16 0.26 0.42 q-0.04 0.16 -0.13 0.21 t-0.23 0.07 q-0.08 0.02 -0.15 0.08 t-0.13 0.12 q-0.02 0.02 -0.02 0.16 q-0.28 0.1 -0.34 0.18 t-0.02 0.26 q0.06 0.22 0.2 0.16 q0.08 -0.02 0.12 -0.12 l0 -0.5 z M135.55999999999997 16.08 l-0.56 0 q-0.12 0.14 -0.25 0.28 t-0.27 0.28 l0 0.52 q-0.12 0.02 -0.25 0.02 l-0.25 0 q-0.1 0.04 -0.12 0.1 q-0.06 0.16 0.14 0.22 q0.18 0.04 0.26 -0.03 t0.18 -0.35 q0.74 -0.32 1.08 -1.06 q0.28 -0.12 0.34 -0.2 t0.02 -0.26 q-0.04 -0.22 -0.2 -0.14 q-0.1 0.06 -0.1 0.12 q-0.02 0.12 -0.01 0.25 t-0.01 0.25 z M126.87999999999998 13.96 q0.24 0.46 0.45 0.88 t0.45 0.88 q0.22 0.22 0.5 0.49 t0.54 0.53 q0.14 0.04 0.23 0.05 t0.17 0.05 q0.22 0.16 0.42 0.33 t0.4 0.33 l0.92 0 q0.14 -0.08 0.25 -0.15 t0.23 -0.15 q0.44 0.04 0.78 -0.17 t0.76 -0.37 q0.22 -0.22 0.46 -0.48 t0.5 -0.52 l0.08 -0.16 l0.08 -0.16 l0.19 -0.38 l0.17 -0.34 q0 -0.16 0.01 -0.25 t0.01 -0.19 q0.1 -0.16 0.17 -0.32 t0.17 -0.32 l0 -1.62 q0 -0.18 -0.01 -0.35 t-0.01 -0.31 q-0.2 -0.32 -0.32 -0.5 q0 -0.14 -0.01 -0.27 t-0.03 -0.29 q-0.22 -0.38 -0.42 -0.76 t-0.54 -0.72 q-0.34 -0.32 -0.72 -0.53 t-0.78 -0.45 l-0.52 0 q-0.12 -0.1 -0.23 -0.17 t-0.21 -0.15 q-0.18 -0.04 -0.36 -0.05 t-0.34 0.09 q-0.18 0.14 -0.39 0.21 t-0.39 0.21 q-0.28 0.2 -0.57 0.4 t-0.61 0.4 q-0.48 0.28 -0.8 0.94 q-0.16 0.36 -0.43 0.64 t-0.71 0.42 q-0.24 0.06 -0.47 0.21 t-0.49 0.27 q0.16 0.18 0.3 0.35 t0.3 0.33 q0.02 0.04 0.01 0.07 t-0.01 0.07 q-0.04 0.08 -0.09 0.16 t-0.13 0.18 q0.14 0.04 0.25 0.07 t0.23 0.05 q0.14 0.04 0.26 0.04 t0.22 0.16 q0.1 0.3 0.07 0.62 t0.01 0.7 z M135.42 14.64 q-0.04 0.04 -0.07 0.06 t-0.05 0.06 q-0.04 0.04 0.01 0.11 t0.15 0.09 q0.22 0.02 0.44 0.01 t0.46 -0.01 q0.06 -0.04 0.22 -0.16 q-0.12 -0.12 -0.26 -0.16 t-0.29 -0.03 t-0.31 0.03 t-0.3 0 z M134.71999999999997 8.26 q-0.1 -0.18 -0.32 -0.12 q-0.1 0.04 -0.16 0.09 t-0.02 0.11 q0.04 0.1 0.12 0.12 t0.18 -0.02 q0.2 -0.02 0.2 -0.18 z M133.98 6.84 q0.22 0.08 0.36 0.11 t0.24 0.05 q0.04 0.02 0.07 -0.02 t0.05 -0.08 q0.04 -0.04 0 -0.11 t-0.14 -0.07 q-0.1 -0.02 -0.23 0.03 t-0.35 0.09 z M134.05999999999997 16.62 q-0.04 -0.04 -0.07 -0.09 t-0.05 -0.03 q-0.28 0.1 -0.02 0.22 q0.02 0.02 0.06 -0.02 z M125.97999999999998 13.219999999999999 q-0.04 0.04 -0.08 0.07 t-0.04 0.05 q0.1 0.3 0.22 0.02 q0.02 -0.04 -0.02 -0.07 t-0.08 -0.07 z M124.63999999999999 12.620000000000001 q-0.04 -0.04 -0.05 -0.06 t-0.05 -0.04 q-0.1 0.06 -0.1 0.1 q0 0.18 0.14 0.1 q0.02 -0.02 0.06 -0.1 z M128.99999999999997 18.42 q-0.04 -0.04 -0.07 -0.08 t-0.05 -0.04 q-0.3 0.1 -0.02 0.24 q0.02 0 0.06 -0.04 z M135.83999999999997 8.28 q-0.08 -0.08 -0.1 -0.12 q-0.04 0.04 -0.07 0.05 t-0.03 0.05 q-0.02 0.1 0.03 0.13 t0.11 -0.01 q0.04 -0.02 0.04 -0.05 t0.02 -0.05 z M128.6 19.12 q-0.04 -0.04 -0.05 -0.06 t-0.05 -0.06 q-0.04 0.04 -0.07 0.05 t-0.03 0.05 q0 0.16 0.14 0.12 q0.02 -0.02 0.03 -0.05 t0.03 -0.05 z M129.6 18.16 q0.08 -0.08 0.12 -0.1 q-0.04 -0.04 -0.06 -0.07 t-0.04 -0.03 q-0.2 0 -0.12 0.14 q0.02 0.02 0.1 0.06 z M133.35999999999999 19.3 q-0.04 0.08 -0.06 0.16 t-0.06 0.12 q-0.16 0.12 -0.3 0.08 q-0.26 -0.06 -0.26 -0.36 l-0.04 0.04 l0.76 0 z M150.54 16.4 q0.14 0.02 0.27 0.03 t0.27 0.01 q0.26 0.28 0.21 0.59 t-0.05 0.61 q-0.06 0.12 -0.13 0.23 t-0.13 0.21 q0.06 0.08 0.11 0.15 t0.11 0.17 q0.12 0.34 0.07 0.7 t-0.01 0.7 q-0.06 0.06 -0.13 0.12 t-0.15 0.12 l-2.36 0 q-0.1 -0.16 -0.18 -0.31 t-0.18 -0.29 q-0.1 -0.16 -0.22 -0.28 l-0.26 -0.26 q-0.18 -0.2 -0.31 -0.43 t-0.27 -0.45 q-0.16 -0.28 -0.26 -0.57 t-0.38 -0.49 q-0.22 -0.18 -0.29 -0.46 t-0.27 -0.44 q-0.3 -0.24 -0.42 -0.58 t-0.34 -0.62 q-0.12 -0.18 -0.2 -0.39 t-0.26 -0.37 q-0.16 -0.16 -0.33 -0.31 t-0.25 -0.37 q-0.16 -0.34 -0.4 -0.6 t-0.4 -0.58 q-0.1 -0.2 -0.22 -0.38 t-0.18 -0.4 q-0.06 -0.18 -0.16 -0.32 t-0.22 -0.28 q-0.14 -0.18 -0.26 -0.1 q-0.12 0.04 -0.12 0.14 l0 8.82 q-0.06 0.1 -0.12 0.16 t-0.12 0.14 l-1.28 0 q-0.1 -0.04 -0.21 -0.11 t-0.23 -0.15 q-0.06 0.04 -0.13 0.08 t-0.15 0.08 q-0.2 0.1 -0.27 0.09 t-0.35 -0.23 l0 -5.22 q0.1 -0.16 0.17 -0.31 t0.15 -0.31 l0 -0.52 q-0.08 -0.14 -0.15 -0.25 t-0.15 -0.25 l0 -2.72 q0.04 -0.1 0.1 -0.21 t0.14 -0.23 q-0.06 -0.1 -0.12 -0.22 t-0.12 -0.22 q-0.04 -0.22 0.05 -0.36 t0.19 -0.3 q-0.06 -0.1 -0.13 -0.22 t-0.13 -0.24 l0 -3.06 l0.14 -0.14 t0.12 -0.14 l2.64 0 q0.14 0.06 0.21 0.16 t0.12 0.2 t0.08 0.2 t0.11 0.18 l0.32 0.32 t0.2 0.4 t0.22 0.38 t0.3 0.34 q0.08 0.1 0.12 0.23 t0.1 0.23 q0.12 0.2 0.25 0.38 t0.17 0.42 q0.04 0.1 0.12 0.14 q0.28 0.22 0.43 0.55 t0.37 0.61 q0.16 0.22 0.31 0.43 t0.25 0.47 q0.1 0.2 0.29 0.35 t0.25 0.35 q0.1 0.28 0.26 0.47 t0.22 0.47 q0.04 0.12 0.12 0.23 t0.18 0.21 q0.26 0.22 0.35 0.52 t0.31 0.52 q0.16 0.16 0.31 0.32 t0.31 0.3 q0.12 -0.02 0.2 -0.03 t0.18 -0.03 q0.04 -0.04 0.05 -0.06 t0.03 -0.04 q-0.14 -0.1 -0.19 -0.25 t-0.09 -0.3 t-0.1 -0.28 t-0.2 -0.21 l0 -1.02 q0.04 -0.08 0.09 -0.19 t0.13 -0.27 q-0.04 -0.1 -0.1 -0.2 t-0.12 -0.26 l0 -4.14 q0.06 -0.12 0.13 -0.28 t0.17 -0.32 l0 -1.28 q0.04 -0.06 0.1 -0.12 l0.1 -0.1 l0.6 0 q0.12 0.08 0.23 0.15 t0.23 0.15 q0.28 -0.18 0.59 -0.28 t0.67 0.2 l0 8.18 q-0.08 0.12 -0.16 0.26 t-0.18 0.3 l0 0.9 q0.08 0.12 0.15 0.23 t0.15 0.23 q-0.06 0.08 -0.11 0.15 t-0.09 0.15 q0.04 0.1 0.09 0.22 t0.09 0.24 q-0.12 0.06 -0.24 0.1 t-0.24 0.1 q-0.16 0.1 -0.14 0.3 q-0.22 0.08 -0.28 0.12 t0 0.12 q0.02 0.02 0.07 0.02 t0.05 -0.02 q0.04 -0.08 0.12 -0.28 z M147.44 13.92 q-0.18 0.02 -0.46 0.12 q0.1 0.14 0.18 0.25 t0.16 0.21 q0.04 0.18 0 0.36 t0.1 0.34 q0.12 0.12 0.22 -0.1 q0 -0.14 0.02 -0.3 t0.02 -0.31 t-0.05 -0.29 t-0.19 -0.28 z M141.14 13.74 l-0.24 -0.24 t-0.22 -0.24 q-0.18 0.16 -0.22 0.21 t0 0.17 q0.1 0.3 0.36 0.24 q0.08 -0.02 0.15 -0.06 t0.17 -0.08 z M141.84 12.64 q-0.08 -0.04 -0.15 -0.08 t-0.15 -0.06 q-0.1 -0.04 -0.19 0 t-0.09 0.14 t0.09 0.14 t0.19 0.02 q0.08 -0.04 0.15 -0.08 t0.15 -0.08 z M150.5 17.66 q-0.04 -0.02 -0.06 -0.06 t-0.06 -0.04 q-0.1 0 -0.1 0.1 q-0.04 0.18 0.16 0.1 z M141.84 17.7 q-0.04 -0.04 -0.07 -0.08 t-0.05 -0.04 q-0.28 0.1 -0.02 0.22 q0.04 0.02 0.07 -0.02 t0.07 -0.08 z M150.14 14.42 q-0.04 -0.04 -0.06 -0.07 t-0.06 -0.03 q-0.1 0 -0.1 0.08 q-0.04 0.2 0.16 0.12 q0.02 -0.02 0.06 -0.1 z M153.38 18.38 q-0.06 -0.16 -0.13 -0.31 t-0.13 -0.29 q0.06 -0.12 0.14 -0.24 t0.1 -0.24 q0.04 -0.22 0.07 -0.43 t0.19 -0.39 q0.08 -0.08 0.1 -0.19 t0.02 -0.23 t0.01 -0.22 t0.07 -0.2 q0.16 -0.2 0.21 -0.41 t0.17 -0.39 q0.14 -0.2 0.19 -0.41 t0.09 -0.43 q0.02 -0.22 0.18 -0.39 t0.14 -0.41 t0.1 -0.42 t0.2 -0.4 q0.1 -0.22 0.19 -0.41 t0.23 -0.37 q0.02 -0.22 0.03 -0.44 t0.01 -0.44 q0.16 -0.28 0.29 -0.56 t0.29 -0.56 l0.08 -0.16 t0.02 -0.16 q-0.04 -0.3 0.11 -0.52 t0.27 -0.48 l0 -0.5 q0.1 -0.12 0.18 -0.23 t0.12 -0.23 q0.1 -0.22 0.08 -0.44 t0.14 -0.4 q0.12 -0.16 0.15 -0.33 t0.07 -0.35 q0.04 -0.3 0.21 -0.56 t0.31 -0.54 q0.04 -0.12 0.16 -0.2 t0.22 -0.18 l2.16 0 q0.06 0.12 0.11 0.24 t0.11 0.24 t0.14 0.23 t0.16 0.21 q0 0.14 0.01 0.27 t0.03 0.29 q0.06 0.1 0.13 0.22 t0.17 0.28 q0 0.1 0.01 0.21 t0.03 0.25 l0 0.48 q0.1 0.16 0.19 0.27 t0.19 0.27 l0 0.84 l-0.43 0 t-0.43 0.02 q-0.04 0 -0.09 0.05 t-0.03 0.05 q0.04 0.06 0.07 0.13 t0.09 0.07 q0.24 0.06 0.5 0 q0.28 -0.04 0.28 -0.36 q0.04 0.02 0.09 0.02 t0.07 0.04 q0.2 0.24 0.33 0.51 t0.25 0.55 q0.06 0.16 0.16 0.32 t0.2 0.36 l0 0.8 q0.22 0.38 0.4 0.72 t0.32 0.74 q-0.06 0.28 0.11 0.51 t0.27 0.51 l0 0.8 q-0.14 0.22 -0.3 0.25 t-0.34 0.05 q-0.1 0 -0.17 0.03 t-0.15 0.07 q-0.04 0.02 -0.07 0.06 t-0.07 0.08 q0 0.12 0.01 0.25 t-0.01 0.27 q-0.06 0.3 -0.38 0.3 l0.04 0.02 q-0.04 -0.08 -0.06 -0.15 t-0.08 -0.13 q-0.12 -0.14 -0.26 0.28 l0.04 -0.04 q-0.38 0.06 -0.4 0.4 l0.02 -0.02 q-1.2 0 -2.41 0.01 t-2.47 0.01 l-0.15 0.3 t-0.17 0.3 l-0.24 0.12 t-0.26 0.12 q0.06 0.1 0.13 0.2 t0.11 0.2 q0.08 0.18 -0.02 0.36 t-0.26 0.18 q-0.22 0.02 -0.45 0.02 l-0.45 0 l-1.06 0 q-0.18 0.08 -0.3 0.22 t-0.34 0.12 z M162.42 14.4 l-0.25 0 t-0.25 0.02 q-0.08 0 -0.12 0.1 q-0.08 0.14 0.16 0.18 q0.18 0.04 0.25 -0.02 t0.17 -0.32 q0.14 0 0.26 0.01 t0.24 -0.01 q0.24 -0.06 0.12 -0.22 q-0.06 -0.1 -0.12 -0.1 q-0.12 -0.02 -0.24 -0.01 t-0.26 0.01 q0 -0.32 -0.26 -0.36 q-0.12 -0.04 -0.25 -0.03 t-0.25 0.03 q-0.06 0.02 -0.1 0.09 t-0.08 0.11 l0.07 0.07 t0.07 0.03 q0.22 0.02 0.42 0.02 l0.42 0 l0 0.4 z M159.51999999999998 9.34 q-0.14 -0.02 -0.27 -0.03 t-0.25 -0.01 q-0.24 -0.16 -0.21 -0.38 t0.01 -0.44 q0.08 -0.12 0.15 -0.23 t0.13 -0.21 q-0.22 -0.1 -0.3 -0.1 t-0.32 0.14 l-0.04 0.36 t-0.06 0.44 q-0.18 0.18 -0.38 0.37 t-0.34 0.33 q-0.24 0.1 -0.37 0.16 t-0.23 0.1 q-0.04 0.12 -0.05 0.2 t-0.05 0.16 q-0.16 0.22 -0.33 0.43 t-0.33 0.43 q-0.04 0.08 -0.01 0.16 t0.09 0.16 q0.48 -0.1 0.86 -0.38 t0.74 -0.58 q0.14 0 0.27 -0.01 t0.27 0.01 q0.04 0 0.08 0.03 t0.08 0.07 q-0.04 0.28 -0.17 0.55 t-0.11 0.57 q-0.22 0.26 -0.28 0.56 t-0.14 0.6 q-0.14 0.16 -0.27 0.34 t-0.27 0.36 l0.07 0.07 t0.07 0.03 q0.7 0.08 1.42 0.07 t1.42 -0.07 q0.04 0 0.07 -0.05 t0.09 -0.09 l0 -0.64 q-0.1 -0.14 -0.16 -0.26 t-0.16 -0.24 q-0.02 -0.22 -0.02 -0.44 t-0.02 -0.46 l-0.32 -0.6 t-0.32 -0.62 q-0.04 -0.04 -0.03 -0.11 t-0.03 -0.23 l0 -0.56 q0.12 0 0.25 0.01 t0.25 -0.01 q0.08 0 0.14 -0.1 q0.08 -0.16 -0.16 -0.2 q-0.2 -0.04 -0.28 0.03 t-0.18 0.31 z M158.5 14.2 q0.46 0.4 0.94 0 q-0.42 -0.36 -0.94 0 z M159.1 15.3 q-0.06 -0.04 -0.11 -0.1 t-0.11 -0.06 q-0.08 -0.02 -0.15 0.01 t-0.15 0.07 q-0.02 0 -0.03 0.04 t0.01 0.06 q0.1 0.2 0.28 0.12 q0.08 -0.02 0.14 -0.06 z M161.1 11.16 q-0.04 0 -0.09 -0.01 t-0.09 0.01 q-0.1 0 -0.16 0.06 t-0.04 0.12 q0.08 0.18 0.3 0.12 t0.2 -0.18 q0 -0.04 -0.04 -0.06 t-0.08 -0.06 z M160.83999999999997 6.9399999999999995 q-0.1 -0.1 -0.12 -0.1 q-0.16 0 -0.34 0.06 q-0.02 0 -0.03 0.04 t-0.01 0.08 q0.04 0.1 0.18 0.12 t0.3 -0.08 q0.02 -0.02 0.02 -0.12 z M162.38 15.82 q0.06 0.3 0.34 0.32 q0.28 0.06 0.38 -0.26 q0.02 -0.04 0.02 -0.09 t0.02 -0.09 t0.05 -0.07 t0.05 -0.07 q0.28 0.16 0.57 0.22 t0.59 0.1 l0.07 0.07 t0.05 0.07 q0.04 0.08 0.04 0.16 t0.02 0.18 q0.16 0.2 0.32 0.44 q0.02 0.14 0.02 0.27 l0 0.27 q0.2 0.26 0.31 0.54 t0.07 0.6 q0.16 0.24 0.32 0.44 q0.02 0.22 0.05 0.44 t-0.19 0.38 q-0.1 -0.08 -0.21 -0.15 t-0.23 -0.13 q-0.2 -0.04 -0.34 0.06 t-0.3 0.2 q-0.28 0.06 -0.54 0.06 t-0.6 -0.04 q-0.1 -0.1 -0.25 -0.2 t-0.19 -0.26 q-0.06 -0.22 -0.18 -0.4 t-0.2 -0.38 q-0.08 -0.18 -0.15 -0.33 t-0.15 -0.31 t-0.1 -0.35 t-0.06 -0.41 l-0.3 -0.42 l0 -0.5 l-0.02 0.02 q0.38 -0.06 0.4 -0.4 l-0.04 0.04 l0.4 0 z M163.39999999999998 18.94 q0 -0.08 -0.02 -0.1 q-0.1 -0.16 -0.22 0.06 l0.04 0.04 q0.06 0.06 0.08 0.06 t0.05 -0.02 t0.07 -0.04 z M164.76 18.28 q0.04 -0.04 0.07 -0.05 t0.03 -0.05 q0.02 -0.04 -0.01 -0.07 t-0.07 -0.03 q-0.16 -0.04 -0.12 0.14 q0.02 0.04 0.05 0.04 t0.05 0.02 z M153.33999999999997 18.34 q0.02 0.04 0.02 0.08 t0.04 0.08 q0.04 0.06 0.1 0.11 t0.14 0.13 l0.82 0 l-0.02 -0.04 l0 0.54 l-0.24 0.24 t-0.22 0.24 q-0.36 0.04 -0.69 0.07 t-0.63 -0.21 l0 -0.52 q0.1 -0.28 0.27 -0.46 t0.45 -0.22 z M155.51999999999998 18.7 l0 0.86 q-0.08 0.06 -0.14 0.11 t-0.16 0.07 q-0.12 0.04 -0.25 -0.03 t-0.15 -0.17 q-0.02 -0.14 0 -0.27 t-0.02 -0.27 q-0.06 -0.26 -0.36 -0.3 l0.02 0.04 q0.04 -0.3 0.24 -0.36 q0.16 -0.04 0.3 0.04 q0.16 0.08 0.27 0.19 t0.29 0.13 z M155.55999999999997 18.74 q0.08 -0.42 0.22 -0.26 q0.02 0.02 0.02 0.1 q-0.1 0.16 -0.28 0.12 z M175.32 17.34 l0 2.32 q0 0.04 -0.08 0.16 q-0.28 0.22 -0.58 0.17 t-0.62 -0.03 t-0.63 0.01 t-0.63 -0.01 l-0.72 0 t-0.72 -0.02 q-0.32 0 -0.63 0.01 t-0.63 0.01 l-1.26 0 q-0.32 -0.02 -0.63 0.01 t-0.61 -0.07 q-0.04 -0.08 -0.1 -0.15 t-0.06 -0.15 q-0.02 -1.22 -0.02 -2.42 l0 -2.4 q0.1 -0.14 0.18 -0.25 t0.16 -0.21 q0.02 -0.22 -0.07 -0.36 t-0.19 -0.26 q-0.02 -0.08 -0.04 -0.12 t-0.02 -0.08 l0 -8.1 q0.12 -0.22 0.25 -0.46 t0.27 -0.48 q0.64 -0.02 1.25 -0.03 t1.23 0.03 q0.06 0.1 0.12 0.18 t0.06 0.16 q0.02 0.64 0.02 1.26 l0 1.26 q-0.08 0.16 -0.14 0.3 t-0.14 0.28 q0.06 0.1 0.12 0.18 t0.14 0.2 q0.06 2.12 0.02 4.26 t0 4.3 q0.08 0.06 0.14 0.12 t0.16 0.12 l1.56 0 q0.22 0.12 0.35 0.19 t0.24 0.1 t0.24 0.03 l0.37 0 q0.12 -0.08 0.23 -0.15 t0.23 -0.15 l0.88 0 q0.08 0.06 0.15 0.11 t0.15 0.13 z M173.48 19.1 q-0.18 -0.3 -0.44 -0.2 q-0.22 0.06 -0.14 0.2 q0.04 0.12 0.12 0.12 q0.12 -0.02 0.23 -0.05 t0.23 -0.07 z M174.07999999999998 18.8 q0.04 -0.04 0.06 -0.05 t0.06 -0.05 q-0.04 -0.04 -0.06 -0.07 t-0.04 -0.03 q-0.1 -0.02 -0.13 0.03 t0.01 0.11 q0 0.02 0.1 0.06 z M168.4 13.66 q-0.04 -0.04 -0.05 -0.08 t-0.05 -0.06 q-0.04 0 -0.07 0.04 t-0.07 0.08 q0.04 0.04 0.06 0.07 t0.06 0.03 t0.06 -0.03 t0.06 -0.05 z"></path></g>
			</g>
		</svg>
	