
		<svg xmlns="http://www.w3.org/2000/svg" xmlns:xlink="http://www.w3.org/1999/xlink" version="1.1" width="3300" height="1395">
			
			<g transform="scale(15) translate(10, 10)">
				<defs id="SvgjsDefs1088"></defs><g id="SvgjsG1089" featureKey="root" fill="#484848"></g><g id="SvgjsG1090" featureKey="text1" fill="#d8d8d8" transform="matrix(3.439135410532061,0,0,3.439135410532061,-0.06878222623156113,-5.476106067579163)"><path d="M2.54 13.379999999999999 l0 0.9 q-0.34 0.2 -0.69 0.38 t-0.69 0.36 q-0.04 0.2 -0.05 0.37 t-0.05 0.37 l-0.9 0.42 q-0.1 -0.1 -0.1 -0.14 q-0.04 -2.8 -0.04 -5.56 l0 -5.54 q0.16 -0.1 0.28 -0.15 t0.34 -0.07 t0.6 -0.01 t1.08 0.03 q0.1 0.08 0.21 0.15 t0.21 0.13 q0.12 -0.08 0.23 -0.15 t0.21 -0.15 l5.4 0 q0.28 0 0.46 0.24 l0 1.96 q0 0.04 -0.02 0.08 l-0.04 0.08 q-0.18 0.06 -0.31 0.09 t-0.41 0.05 t-0.8 0.02 l-1.48 0 q-0.72 0 -1.43 0.01 t-1.41 0.01 q-0.06 0.1 -0.12 0.17 t-0.08 0.15 l0 1.54 q-0.1 0.22 -0.25 0.34 t-0.15 0.34 l0.04 -0.04 q-0.08 0.04 -0.17 0.07 t-0.13 0.09 q-0.06 0.12 -0.11 0.24 t-0.09 0.24 q-0.16 -0.06 -0.31 -0.13 t-0.3 -0.12 t-0.31 -0.03 t-0.34 0.16 q0.04 0.12 0.1 0.23 t0.12 0.21 q-0.06 0.08 -0.12 0.15 t-0.12 0.17 q0.16 0.2 0.34 0.39 t0.34 0.37 q0 0.22 -0.08 0.35 t-0.3 0.17 q-0.1 -0.4 -0.24 -0.26 q-0.04 0.04 0 0.12 q0.06 0.16 0.28 0.12 q-0.04 0.2 -0.16 0.28 t-0.32 0.12 q-0.28 0.06 0 0.3 l0.54 0 q0.1 -0.06 0.2 -0.13 t0.22 -0.15 q0.36 -0.16 0.56 0.2 q0.04 0.08 0.05 0.17 t0.07 0.15 q0.04 0.06 0.12 0.09 t0.16 0.07 z M4.36 6.18 q0 -0.22 -0.12 -0.26 q-0.08 -0.04 -0.12 0 q-0.08 0.08 -0.02 0.11 t0.28 0.11 q0.1 0.26 0.18 0.33 t0.26 0.03 q0.24 -0.04 0.16 -0.2 q-0.06 -0.1 -0.12 -0.1 q-0.12 -0.02 -0.25 -0.02 l-0.25 0 z M2.8 5.460000000000001 q-0.06 0 -0.14 -0.01 t-0.18 0.01 q-0.22 0.06 -0.14 0.22 q0.04 0.1 0.14 0.1 q0.1 0.02 0.18 0.02 l0.18 0 q0.16 0 0.27 -0.07 t0.05 -0.15 q-0.12 -0.18 -0.36 -0.12 z M3.2 6.640000000000001 q-0.04 0 -0.07 -0.02 t-0.05 -0.02 q-0.04 0.02 -0.08 0.05 t-0.04 0.05 q0.1 0.24 0.22 0.06 q0.02 -0.02 0.02 -0.12 z M2.18 16.259999999999998 q0.04 0.08 0.07 0.17 t0.09 0.13 q0.32 0.2 0.43 0.29 t0.27 0.37 q0.02 0.04 0.06 0.07 l0.12 0.09 l1.04 0 l4.5 0 q0.04 0 0.08 0.03 t0.08 0.05 q0.08 0.16 -0.02 0.25 t-0.14 0.19 q0.04 0.08 0.1 0.14 t0.1 0.16 q-0.02 0.26 -0.18 0.38 t-0.36 0.24 l-0.52 0 q-0.12 0.08 -0.23 0.16 t-0.21 0.14 q-0.12 0.06 -0.24 0.1 t-0.28 0.08 q0.1 0.08 0.16 0.13 t0.14 0.07 t0.19 0.02 t0.33 -0.02 q0.1 -0.08 0.21 -0.15 t0.23 -0.15 q0.14 -0.02 0.26 0 t0.22 0.12 t0.17 0.21 t0.17 0.21 q-0.1 0.04 -0.18 0.09 t-0.16 0.05 q-0.86 0.02 -1.69 0.02 l-1.67 0 q-0.14 -0.1 -0.25 -0.18 t-0.21 -0.16 q-0.14 -0.04 -0.25 0 t-0.2 0.11 t-0.17 0.14 t-0.2 0.09 q-0.16 -0.02 -0.34 0 t-0.36 -0.14 q0.08 -0.1 0.15 -0.2 t0.11 -0.22 q0.04 -0.08 0.04 -0.17 t0.04 -0.17 q0.06 -0.1 0.14 -0.21 t0.18 -0.25 q0 -0.12 0.01 -0.25 t-0.01 -0.25 q-0.02 -0.18 -0.2 -0.27 t-0.34 0.01 q-0.24 0.16 -0.44 0.32 l-0.88 0 q-0.26 0.12 -0.18 0.22 q0.04 0.1 0.14 0.1 q0.12 0.02 0.26 0.01 t0.26 0.03 q0.06 0.02 0.12 0.08 t0.1 0.12 q-0.04 0.08 -0.1 0.15 t-0.1 0.15 q0.04 0.1 0.09 0.22 t0.11 0.22 l-0.48 0.24 t-0.48 0.22 q-0.18 0.1 -0.32 -0.12 q0.06 -0.1 0.12 -0.21 t0.14 -0.25 q0 -0.04 0.01 -0.07 t-0.01 -0.07 q-0.18 -0.36 -0.32 -0.73 t-0.52 -0.59 q-0.22 0.04 -0.35 0.19 t-0.23 0.33 q0 0.34 0.24 0.44 l0.44 0.22 q0.04 0.24 0.04 0.47 t-0.24 0.39 l-0.62 0 q-0.14 -0.08 -0.18 -0.15 t-0.04 -0.17 q-0.02 -0.64 -0.02 -1.26 l0 -1.26 q0 -0.08 0.05 -0.16 t0.09 -0.18 q0.22 0.16 0.41 0.31 t0.39 0.31 q0.1 -0.1 0.12 -0.24 t0.04 -0.27 t0.06 -0.26 t0.2 -0.23 l0.84 0 z M2.88 11.12 q0.04 -0.16 0.05 -0.27 t0.05 -0.21 q0.1 -0.12 0.23 -0.24 t0.29 -0.26 q0.9 -0.02 1.77 -0.02 t1.77 0.04 q0.06 0.1 0.12 0.16 t0.06 0.14 q0.02 0.5 0.02 0.99 l0 0.99 q-0.08 0.04 -0.15 0.1 t-0.15 0.1 l-1.22 0 q-0.12 -0.08 -0.24 -0.15 t-0.22 -0.13 q-0.08 0.04 -0.15 0.09 t-0.15 0.11 l-0.36 -0.16 t-0.36 -0.11 t-0.35 0.04 t-0.35 0.27 q-0.4 -0.2 -0.79 -0.38 t-0.79 -0.38 q-0.02 0 -0.02 -0.04 l0 -0.08 q0.16 -0.28 0.41 -0.42 t0.53 -0.18 z M5.1 11.6 q-0.38 0.1 -0.28 0.24 q0.1 0.04 0.12 0.02 q0.18 -0.08 0.14 -0.3 q0.4 -0.1 0.26 -0.22 q-0.06 -0.06 -0.12 -0.02 q-0.16 0.1 -0.12 0.28 z M2.58 13.4 q0 -0.12 -0.01 -0.25 t0.01 -0.27 q0 -0.06 0.1 -0.12 q0.16 -0.08 0.22 0.16 q0.04 0.18 -0.03 0.27 t-0.33 0.19 z M2.22 16.3 q-0.04 -0.18 0.12 -0.28 q0.02 -0.02 0.06 -0.01 t0.06 0.03 q0.12 0.12 -0.28 0.22 z M2.74 14.9 q0.04 0.04 0.08 0.07 t0.04 0.05 q-0.14 0.3 -0.24 -0.02 q0 -0.02 0.04 -0.04 t0.08 -0.06 z M2.54 9.8 q0.42 0.12 0.28 0.22 q-0.06 0.06 -0.14 0.02 q-0.14 -0.1 -0.1 -0.28 z M22.240000000000002 16.4 q0.14 0.02 0.27 0.03 t0.27 0.01 q0.26 0.28 0.21 0.59 t-0.05 0.61 q-0.06 0.12 -0.13 0.23 t-0.13 0.21 q0.06 0.08 0.11 0.15 t0.11 0.17 q0.12 0.34 0.07 0.7 t-0.01 0.7 q-0.06 0.06 -0.13 0.12 t-0.15 0.12 l-2.36 0 q-0.1 -0.16 -0.18 -0.31 t-0.18 -0.29 q-0.1 -0.16 -0.22 -0.28 l-0.26 -0.26 q-0.18 -0.2 -0.31 -0.43 t-0.27 -0.45 q-0.16 -0.28 -0.26 -0.57 t-0.38 -0.49 q-0.22 -0.18 -0.29 -0.46 t-0.27 -0.44 q-0.3 -0.24 -0.42 -0.58 t-0.34 -0.62 q-0.12 -0.18 -0.2 -0.39 t-0.26 -0.37 q-0.16 -0.16 -0.33 -0.31 t-0.25 -0.37 q-0.16 -0.34 -0.4 -0.6 t-0.4 -0.58 q-0.1 -0.2 -0.22 -0.38 t-0.18 -0.4 q-0.06 -0.18 -0.16 -0.32 t-0.22 -0.28 q-0.14 -0.18 -0.26 -0.1 q-0.12 0.04 -0.12 0.14 l0 8.82 q-0.06 0.1 -0.12 0.16 t-0.12 0.14 l-1.28 0 q-0.1 -0.04 -0.21 -0.11 t-0.23 -0.15 q-0.06 0.04 -0.13 0.08 t-0.15 0.08 q-0.2 0.1 -0.27 0.09 t-0.35 -0.23 l0 -5.22 q0.1 -0.16 0.17 -0.31 t0.15 -0.31 l0 -0.52 q-0.08 -0.14 -0.15 -0.25 t-0.15 -0.25 l0 -2.72 q0.04 -0.1 0.1 -0.21 t0.14 -0.23 q-0.06 -0.1 -0.12 -0.22 t-0.12 -0.22 q-0.04 -0.22 0.05 -0.36 t0.19 -0.3 q-0.06 -0.1 -0.13 -0.22 t-0.13 -0.24 l0 -3.06 l0.14 -0.14 t0.12 -0.14 l2.64 0 q0.14 0.06 0.21 0.16 t0.12 0.2 t0.08 0.2 t0.11 0.18 l0.32 0.32 t0.2 0.4 t0.22 0.38 t0.3 0.34 q0.08 0.1 0.12 0.23 t0.1 0.23 q0.12 0.2 0.25 0.38 t0.17 0.42 q0.04 0.1 0.12 0.14 q0.28 0.22 0.43 0.55 t0.37 0.61 q0.16 0.22 0.31 0.43 t0.25 0.47 q0.1 0.2 0.29 0.35 t0.25 0.35 q0.1 0.28 0.26 0.47 t0.22 0.47 q0.04 0.12 0.12 0.23 t0.18 0.21 q0.26 0.22 0.35 0.52 t0.31 0.52 q0.16 0.16 0.31 0.32 t0.31 0.3 q0.12 -0.02 0.2 -0.03 t0.18 -0.03 q0.04 -0.04 0.05 -0.06 t0.03 -0.04 q-0.14 -0.1 -0.19 -0.25 t-0.09 -0.3 t-0.1 -0.28 t-0.2 -0.21 l0 -1.02 q0.04 -0.08 0.09 -0.19 t0.13 -0.27 q-0.04 -0.1 -0.1 -0.2 t-0.12 -0.26 l0 -4.14 q0.06 -0.12 0.13 -0.28 t0.17 -0.32 l0 -1.28 q0.04 -0.06 0.1 -0.12 l0.1 -0.1 l0.6 0 q0.12 0.08 0.23 0.15 t0.23 0.15 q0.28 -0.18 0.59 -0.28 t0.67 0.2 l0 8.18 q-0.08 0.12 -0.16 0.26 t-0.18 0.3 l0 0.9 q0.08 0.12 0.15 0.23 t0.15 0.23 q-0.06 0.08 -0.11 0.15 t-0.09 0.15 q0.04 0.1 0.09 0.22 t0.09 0.24 q-0.12 0.06 -0.24 0.1 t-0.24 0.1 q-0.16 0.1 -0.14 0.3 q-0.22 0.08 -0.28 0.12 t0 0.12 q0.02 0.02 0.07 0.02 t0.05 -0.02 q0.04 -0.08 0.12 -0.28 z M19.14 13.92 q-0.18 0.02 -0.46 0.12 q0.1 0.14 0.18 0.25 t0.16 0.21 q0.04 0.18 0 0.36 t0.1 0.34 q0.12 0.12 0.22 -0.1 q0 -0.14 0.02 -0.3 t0.02 -0.31 t-0.05 -0.29 t-0.19 -0.28 z M12.84 13.74 l-0.24 -0.24 t-0.22 -0.24 q-0.18 0.16 -0.22 0.21 t0 0.17 q0.1 0.3 0.36 0.24 q0.08 -0.02 0.15 -0.06 t0.17 -0.08 z M13.54 12.64 q-0.08 -0.04 -0.15 -0.08 t-0.15 -0.06 q-0.1 -0.04 -0.19 0 t-0.09 0.14 t0.09 0.14 t0.19 0.02 q0.08 -0.04 0.15 -0.08 t0.15 -0.08 z M22.2 17.66 q-0.04 -0.02 -0.06 -0.06 t-0.06 -0.04 q-0.1 0 -0.1 0.1 q-0.04 0.18 0.16 0.1 z M13.54 17.7 q-0.04 -0.04 -0.07 -0.08 t-0.05 -0.04 q-0.28 0.1 -0.02 0.22 q0.04 0.02 0.07 -0.02 t0.07 -0.08 z M21.84 14.42 q-0.04 -0.04 -0.06 -0.07 t-0.06 -0.03 q-0.1 0 -0.1 0.08 q-0.04 0.2 0.16 0.12 q0.02 -0.02 0.06 -0.1 z M29.439999999999998 18.26 q-0.32 -0.02 -0.63 -0.02 t-0.61 -0.02 q-0.1 -0.18 -0.15 -0.33 t-0.07 -0.43 t-0.01 -0.8 t0.05 -1.46 q0.08 -0.1 0.15 -0.22 t0.15 -0.24 l0 -1.6 q-0.1 -0.16 -0.18 -0.32 t-0.18 -0.34 l0 -4.82 q-0.08 -0.08 -0.15 -0.13 t-0.15 -0.13 l-3.04 0 q-0.06 -0.06 -0.13 -0.12 t-0.13 -0.12 q-0.04 -0.62 -0.01 -1.24 t-0.01 -1.22 q0.2 -0.12 0.39 -0.16 t0.38 -0.04 t0.36 0.02 t0.35 0 q0.32 -0.02 0.63 -0.01 t0.63 0.01 l1.44 0 l1.46 0 l1.26 0 l1.46 0 q0.24 0.1 0.5 0.26 q0.14 -0.08 0.48 -0.24 q0.12 0 0.29 -0.01 t0.35 0.01 q0.08 0 0.16 0.02 t0.18 0.04 q0.04 0.04 0.08 0.07 t0.04 0.07 q0.02 0.4 0.03 0.8 t0.03 0.82 q-0.08 0.12 -0.14 0.23 t-0.14 0.23 q0.04 0.1 0.09 0.21 t0.11 0.27 q-0.14 0.02 -0.27 0.05 t-0.25 0.03 q-0.68 0.02 -1.35 0.02 t-1.35 0.02 q-0.08 0 -0.15 0.07 t-0.17 0.13 l0 3.4 l-0.12 0.24 t-0.14 0.26 q0.04 0.12 0.11 0.25 t0.11 0.28 t0.03 0.31 t-0.11 0.36 q-0.08 0.08 -0.19 0.2 t-0.23 0.24 q-0.16 0.02 -0.3 0.02 t-0.32 0.02 q-0.1 0.08 -0.24 0.16 t-0.3 0.18 q-0.1 0.04 -0.2 0.02 t-0.2 -0.03 t-0.19 0.04 t-0.15 0.19 q0.24 0.12 0.47 0.24 t0.45 0.26 q0.1 -0.04 0.18 -0.05 t0.16 -0.05 q0.14 -0.1 0.28 -0.19 t0.36 -0.01 q0.16 0.12 0.18 0.28 t0.01 0.33 t0.04 0.32 t0.27 0.23 q-0.1 0.16 -0.16 0.24 t-0.1 0.18 q-0.04 0.26 -0.05 0.52 t-0.03 0.54 q-0.16 0.08 -0.32 0.17 t-0.32 0.19 q0.16 0.1 0.33 0.21 t0.35 0.23 l0 2.34 q-0.18 0.18 -0.24 0.26 q-0.58 0 -1.18 0.01 t-1.18 -0.01 q-0.06 0 -0.13 -0.07 l-0.13 -0.13 q-0.02 -0.3 -0.03 -0.48 t0 -0.29 t0.06 -0.19 t0.13 -0.22 q0.28 -0.04 0.54 -0.06 t0.52 -0.06 q0.16 -0.02 0.16 -0.28 q0.42 -0.12 0.28 -0.22 q-0.04 -0.04 -0.12 -0.06 t-0.16 -0.06 q-0.1 -0.42 -0.22 -0.26 q-0.02 0.02 -0.03 0.06 t0.01 0.06 q0.08 0.14 0.28 0.12 l0 0.4 z M26.92 6.140000000000001 q0.1 0.04 0.16 0.08 t0.14 0.06 q0.32 0.04 0.36 -0.24 q0.04 -0.12 0 -0.22 t-0.22 -0.14 q-0.1 0.1 -0.21 0.22 t-0.23 0.24 z M30.259999999999998 17.62 q0 0.02 -0.02 0.04 t-0.02 0.06 q0.02 0.04 0.05 0.08 t0.05 0.02 q0.2 -0.1 0.06 -0.2 q-0.02 -0.02 -0.05 -0.01 t-0.07 0.01 z M28.82 14.719999999999999 q-0.06 0.06 -0.04 0.1 q0 0.1 0.08 0.1 q0.04 0 0.08 -0.03 t0.04 -0.07 q0 -0.16 -0.16 -0.1 z M32.18 6.039999999999999 q-0.16 -0.04 -0.16 0.12 q0 0.02 0.1 0.12 q0.04 -0.04 0.07 -0.06 t0.05 -0.06 q0 -0.02 -0.02 -0.05 t-0.04 -0.07 z M34.72 16.06 q-0.22 0.04 -0.28 -0.14 q-0.02 -0.02 -0.01 -0.06 t0.03 -0.06 q0.14 -0.14 0.22 0.28 z M39.1 13.379999999999999 l0 0.9 q-0.34 0.2 -0.69 0.38 t-0.69 0.36 q-0.04 0.2 -0.05 0.37 t-0.05 0.37 l-0.9 0.42 q-0.1 -0.1 -0.1 -0.14 q-0.04 -2.8 -0.04 -5.56 l0 -5.54 q0.16 -0.1 0.28 -0.15 t0.34 -0.07 t0.6 -0.01 t1.08 0.03 q0.1 0.08 0.21 0.15 t0.21 0.13 q0.12 -0.08 0.23 -0.15 t0.21 -0.15 l5.4 0 q0.28 0 0.46 0.24 l0 1.96 q0 0.04 -0.02 0.08 l-0.04 0.08 q-0.18 0.06 -0.31 0.09 t-0.41 0.05 t-0.8 0.02 l-1.48 0 q-0.72 0 -1.43 0.01 t-1.41 0.01 q-0.06 0.1 -0.12 0.17 t-0.08 0.15 l0 1.54 q-0.1 0.22 -0.25 0.34 t-0.15 0.34 l0.04 -0.04 q-0.08 0.04 -0.17 0.07 t-0.13 0.09 q-0.06 0.12 -0.11 0.24 t-0.09 0.24 q-0.16 -0.06 -0.31 -0.13 t-0.3 -0.12 t-0.31 -0.03 t-0.34 0.16 q0.04 0.12 0.1 0.23 t0.12 0.21 q-0.06 0.08 -0.12 0.15 t-0.12 0.17 q0.16 0.2 0.34 0.39 t0.34 0.37 q0 0.22 -0.08 0.35 t-0.3 0.17 q-0.1 -0.4 -0.24 -0.26 q-0.04 0.04 0 0.12 q0.06 0.16 0.28 0.12 q-0.04 0.2 -0.16 0.28 t-0.32 0.12 q-0.28 0.06 0 0.3 l0.54 0 q0.1 -0.06 0.2 -0.13 t0.22 -0.15 q0.36 -0.16 0.56 0.2 q0.04 0.08 0.05 0.17 t0.07 0.15 q0.04 0.06 0.12 0.09 t0.16 0.07 z M40.92 6.18 q0 -0.22 -0.12 -0.26 q-0.08 -0.04 -0.12 0 q-0.08 0.08 -0.02 0.11 t0.28 0.11 q0.1 0.26 0.18 0.33 t0.26 0.03 q0.24 -0.04 0.16 -0.2 q-0.06 -0.1 -0.12 -0.1 q-0.12 -0.02 -0.25 -0.02 l-0.25 0 z M39.36 5.460000000000001 q-0.06 0 -0.14 -0.01 t-0.18 0.01 q-0.22 0.06 -0.14 0.22 q0.04 0.1 0.14 0.1 q0.1 0.02 0.18 0.02 l0.18 0 q0.16 0 0.27 -0.07 t0.05 -0.15 q-0.12 -0.18 -0.36 -0.12 z M39.760000000000005 6.640000000000001 q-0.04 0 -0.07 -0.02 t-0.05 -0.02 q-0.04 0.02 -0.08 0.05 t-0.04 0.05 q0.1 0.24 0.22 0.06 q0.02 -0.02 0.02 -0.12 z M38.74 16.259999999999998 q0.04 0.08 0.07 0.17 t0.09 0.13 q0.32 0.2 0.43 0.29 t0.27 0.37 q0.02 0.04 0.06 0.07 l0.12 0.09 l1.04 0 l4.5 0 q0.04 0 0.08 0.03 t0.08 0.05 q0.08 0.16 -0.02 0.25 t-0.14 0.19 q0.04 0.08 0.1 0.14 t0.1 0.16 q-0.02 0.26 -0.18 0.38 t-0.36 0.24 l-0.52 0 q-0.12 0.08 -0.23 0.16 t-0.21 0.14 q-0.12 0.06 -0.24 0.1 t-0.28 0.08 q0.1 0.08 0.16 0.13 t0.14 0.07 t0.19 0.02 t0.33 -0.02 q0.1 -0.08 0.21 -0.15 t0.23 -0.15 q0.14 -0.02 0.26 0 t0.22 0.12 t0.17 0.21 t0.17 0.21 q-0.1 0.04 -0.18 0.09 t-0.16 0.05 q-0.86 0.02 -1.69 0.02 l-1.67 0 q-0.14 -0.1 -0.25 -0.18 t-0.21 -0.16 q-0.14 -0.04 -0.25 0 t-0.2 0.11 t-0.17 0.14 t-0.2 0.09 q-0.16 -0.02 -0.34 0 t-0.36 -0.14 q0.08 -0.1 0.15 -0.2 t0.11 -0.22 q0.04 -0.08 0.04 -0.17 t0.04 -0.17 q0.06 -0.1 0.14 -0.21 t0.18 -0.25 q0 -0.12 0.01 -0.25 t-0.01 -0.25 q-0.02 -0.18 -0.2 -0.27 t-0.34 0.01 q-0.24 0.16 -0.44 0.32 l-0.88 0 q-0.26 0.12 -0.18 0.22 q0.04 0.1 0.14 0.1 q0.12 0.02 0.26 0.01 t0.26 0.03 q0.06 0.02 0.12 0.08 t0.1 0.12 q-0.04 0.08 -0.1 0.15 t-0.1 0.15 q0.04 0.1 0.09 0.22 t0.11 0.22 l-0.48 0.24 t-0.48 0.22 q-0.18 0.1 -0.32 -0.12 q0.06 -0.1 0.12 -0.21 t0.14 -0.25 q0 -0.04 0.01 -0.07 t-0.01 -0.07 q-0.18 -0.36 -0.32 -0.73 t-0.52 -0.59 q-0.22 0.04 -0.35 0.19 t-0.23 0.33 q0 0.34 0.24 0.44 l0.44 0.22 q0.04 0.24 0.04 0.47 t-0.24 0.39 l-0.62 0 q-0.14 -0.08 -0.18 -0.15 t-0.04 -0.17 q-0.02 -0.64 -0.02 -1.26 l0 -1.26 q0 -0.08 0.05 -0.16 t0.09 -0.18 q0.22 0.16 0.41 0.31 t0.39 0.31 q0.1 -0.1 0.12 -0.24 t0.04 -0.27 t0.06 -0.26 t0.2 -0.23 l0.84 0 z M39.440000000000005 11.12 q0.04 -0.16 0.05 -0.27 t0.05 -0.21 q0.1 -0.12 0.23 -0.24 t0.29 -0.26 q0.9 -0.02 1.77 -0.02 t1.77 0.04 q0.06 0.1 0.12 0.16 t0.06 0.14 q0.02 0.5 0.02 0.99 l0 0.99 q-0.08 0.04 -0.15 0.1 t-0.15 0.1 l-1.22 0 q-0.12 -0.08 -0.24 -0.15 t-0.22 -0.13 q-0.08 0.04 -0.15 0.09 t-0.15 0.11 l-0.36 -0.16 t-0.36 -0.11 t-0.35 0.04 t-0.35 0.27 q-0.4 -0.2 -0.79 -0.38 t-0.79 -0.38 q-0.02 0 -0.02 -0.04 l0 -0.08 q0.16 -0.28 0.41 -0.42 t0.53 -0.18 z M41.660000000000004 11.6 q-0.38 0.1 -0.28 0.24 q0.1 0.04 0.12 0.02 q0.18 -0.08 0.14 -0.3 q0.4 -0.1 0.26 -0.22 q-0.06 -0.06 -0.12 -0.02 q-0.16 0.1 -0.12 0.28 z M39.14 13.4 q0 -0.12 -0.01 -0.25 t0.01 -0.27 q0 -0.06 0.1 -0.12 q0.16 -0.08 0.22 0.16 q0.04 0.18 -0.03 0.27 t-0.33 0.19 z M38.78 16.3 q-0.04 -0.18 0.12 -0.28 q0.02 -0.02 0.06 -0.01 t0.06 0.03 q0.12 0.12 -0.28 0.22 z M39.300000000000004 14.9 q0.04 0.04 0.08 0.07 t0.04 0.05 q-0.14 0.3 -0.24 -0.02 q0 -0.02 0.04 -0.04 t0.08 -0.06 z M39.1 9.8 q0.42 0.12 0.28 0.22 q-0.06 0.06 -0.14 0.02 q-0.14 -0.1 -0.1 -0.28 z M47.96 18.78 q-0.08 -0.12 -0.15 -0.23 t-0.15 -0.21 l0 -7.76 q0.1 -0.16 0.18 -0.32 t0.18 -0.32 q0 -0.12 -0.01 -0.25 t-0.01 -0.25 q-0.08 -0.12 -0.15 -0.24 t-0.17 -0.26 q-0.02 -0.96 -0.03 -1.95 t0.05 -2.01 q0.28 -0.12 0.55 -0.24 t0.55 -0.22 q0.16 0.1 0.27 0.16 t0.23 0.14 l0.42 -0.3 l2.72 0 q0.12 0.08 0.24 0.15 t0.26 0.15 q0.42 0.04 0.92 0.06 q0.12 0.08 0.27 0.16 t0.31 0.18 l0.56 0 q0.2 0.16 0.39 0.34 t0.41 0.34 q0.08 0.04 0.16 0.05 t0.18 0.05 q0.14 0.22 0.28 0.45 t0.26 0.47 q0.1 0.2 0.18 0.41 t0.18 0.43 l0 2.94 q-0.22 0.46 -0.43 0.86 t-0.43 0.82 q-0.12 0.02 -0.24 0.05 t-0.26 0.03 q-0.22 0 -0.34 0.14 q0.04 0.1 0.09 0.21 t0.11 0.21 q-0.22 0.22 -0.4 0.12 t-0.38 -0.22 q-0.06 -0.04 -0.13 0.01 t-0.09 0.17 t-0.01 0.26 t0.01 0.26 q0.06 0.08 0.12 0.14 t0.14 0.1 q0.32 0.1 0.51 0.32 t0.33 0.54 q0.1 0.24 0.22 0.47 t0.24 0.47 l0.2 0.4 t0.22 0.38 q0.14 0.22 0.22 0.48 t0.28 0.46 q0 0.24 0.16 0.41 t0.2 0.39 q0.06 0.28 0.24 0.48 t0.22 0.48 q0.02 0.12 0.12 0.23 t0.14 0.23 q0.08 0.26 -0.24 0.42 l-2.98 0 q-0.26 -0.06 -0.3 -0.24 t-0.14 -0.32 q-0.22 -0.24 -0.3 -0.55 t-0.3 -0.53 q-0.02 -0.2 -0.11 -0.35 t-0.19 -0.31 q-0.08 -0.1 -0.09 -0.23 t-0.03 -0.26 t-0.05 -0.26 t-0.15 -0.23 q-0.16 -0.16 -0.22 -0.38 t-0.16 -0.42 q-0.12 -0.22 -0.27 -0.45 t-0.19 -0.49 q-0.06 -0.26 -0.22 -0.39 t-0.3 -0.27 q-0.52 -0.16 -1.1 -0.04 q-0.04 0.08 -0.11 0.15 t-0.07 0.15 q-0.02 1.08 -0.02 2.16 l0 2.16 l0 0.86 q-0.1 0.08 -0.17 0.15 t-0.15 0.07 q-0.58 0.02 -1.17 0.02 l-1.17 0 q-0.1 -0.1 -0.22 -0.26 l0 -0.56 q0.06 -0.1 0.13 -0.21 t0.15 -0.21 z M54.5 16.04 q0.26 0 0.4 -0.15 t0.24 -0.33 q0.02 -0.02 -0.02 -0.12 q-0.04 -0.02 -0.07 -0.04 t-0.07 -0.02 q-0.42 -0.02 -0.44 0.36 q-0.02 0.1 -0.01 0.18 t0.01 0.16 q-0.4 0.1 -0.28 0.22 q0.06 0.08 0.12 0.02 q0.16 -0.06 0.12 -0.28 z M50.56 12.46 l-0.02 -0.02 q0.02 0.3 0.32 0.36 q0.14 0.02 0.27 0.01 t0.27 -0.01 q0.3 -0.28 0.59 -0.54 t0.57 -0.5 q0.14 -0.02 0.23 -0.02 l0.19 0 q0.06 -0.02 0.18 -0.02 q0.18 -0.12 0.28 -0.21 t0.19 -0.22 t0.2 -0.34 t0.33 -0.61 l0 -1.58 q-0.16 -0.28 -0.28 -0.5 t-0.22 -0.38 q-0.26 -0.14 -0.46 -0.25 t-0.4 -0.23 l-1.94 0 q-0.42 0.26 -0.18 0.62 q0.04 0.08 0.09 0.16 t0.11 0.2 l0 1.92 q0 0.04 -0.04 0.16 q-0.04 0.08 -0.09 0.15 t-0.09 0.17 q0.04 0.1 0.09 0.21 t0.09 0.23 q-0.1 0.14 -0.21 0.27 t-0.29 0.17 q-0.08 -0.04 -0.15 -0.1 t-0.15 -0.1 q-0.12 0.06 -0.16 0.15 t-0.04 0.15 t0.03 0.09 t0.05 -0.03 q-0.06 0.24 -0.15 0.38 t-0.16 0.25 t-0.11 0.19 t-0.02 0.2 q-0.4 0.08 -0.26 0.22 q0.06 0.06 0.12 0.02 q0.16 -0.1 0.12 -0.28 q0.16 0.08 0.3 0.14 t0.3 0.14 q0.1 -0.1 0.12 -0.14 q0.04 -0.08 0.04 -0.16 t0.04 -0.18 q0.08 -0.14 0.3 -0.14 z M52.78 13.780000000000001 q0.5 0.18 0.62 -0.1 q0.1 -0.18 0.16 -0.38 t0.16 -0.42 l-0.52 0 q-0.04 0.14 -0.08 0.26 t-0.1 0.22 q-0.04 0.1 -0.11 0.21 t-0.13 0.21 z M48.54 15.3 q0.1 -0.08 0.19 -0.15 t0.19 -0.17 q0.2 -0.16 0.04 -0.26 q-0.08 -0.08 -0.14 -0.08 q-0.18 0 -0.35 -0.03 t-0.33 0.13 q0 0.2 0.12 0.31 t0.28 0.25 z M53.22 15.440000000000001 l-0.06 0.1 q0.04 0.1 0.1 0.1 q0.1 0 0.1 -0.08 q0.02 -0.08 -0.03 -0.11 t-0.11 -0.01 z M48.14 13.64 l-0.04 0.1 q0.04 0.1 0.1 0.1 q0.1 0 0.1 -0.1 q0.02 -0.14 -0.16 -0.1 z M50.02 10.34 q-0.28 0.1 0 0.24 q0 0.02 0.04 -0.02 l0.08 -0.08 q-0.04 -0.04 -0.06 -0.07 t-0.06 -0.07 z M48.64 10.4 q-0.02 -0.02 -0.05 -0.04 t-0.05 0 q-0.04 0.02 -0.12 0.1 q0.04 0.04 0.06 0.07 t0.06 0.03 q0.16 0 0.1 -0.16 z M56.64 9.02 q-0.04 -0.04 -0.07 -0.08 t-0.05 -0.02 q-0.14 0.04 -0.14 0.1 t0.14 0.12 q0.02 0 0.05 -0.04 t0.07 -0.08 z M53.96 6.6 q0.06 -0.02 0.14 -0.1 q-0.1 -0.1 -0.12 -0.1 t-0.12 0.1 q0.06 0.04 0.1 0.1 z M50.56 12.46 q0.1 -0.26 0.18 -0.32 t0.26 -0.02 q0.22 0.04 0.18 0.2 q-0.04 0.08 -0.12 0.12 l-0.52 0 z"></path></g>
			</g>
		</svg>
	